<svg width="113" height="109" viewBox="0 0 113 109" fill="none" xmlns="http://www.w3.org/2000/svg">
<path fill-rule="evenodd" clip-rule="evenodd" d="M64.1696 90.3111C75.0209 90.3111 84.5435 82.481 79.1956 71.8457C73.8477 61.2105 93.7185 61.554 99.5556 54.2036C106.674 45.2395 104.613 7.18827 58.9146 30.3862C51.5943 34.1022 32.7943 26.5632 26.5582 30.3039C19.2177 34.7071 8.89011 43.7233 19.2177 52.9592C24.3049 57.5086 6.06616 69.3168 14.0544 79.8939C21.8489 90.2144 27.3127 80.3759 39.1797 82.481C51.0467 84.586 56.1105 90.3111 64.1696 90.3111Z" fill="#996799"/>
<path d="M51.2415 71.8637C51.2415 71.8637 53.74 70.7236 54.6728 69.9304C55.6055 69.1372 56.7652 67.1666 56.7652 67.1666C56.7652 67.1666 69.5033 76.0905 77.809 74.8176C79.7227 74.5243 83.4515 73.2903 83.6893 71.1162C84.3386 65.1795 75.3548 63.6624 77.3172 60.6519C78.5151 58.8142 82.2362 61.5492 82.2362 61.5492L97.6703 68.9135C97.6703 68.9135 92.3382 81.6636 79.3986 82.1745C63.4812 82.8031 51.2415 71.8637 51.2415 71.8637Z" fill="white"/>
<path fill-rule="evenodd" clip-rule="evenodd" d="M39.0047 21.9316C38.8599 21.8764 38.0819 20.9524 37.0943 20.7842C36.6455 20.7078 37.0528 21.2621 36.5589 21.2671C35.0878 21.282 32.6972 21.0139 32.2543 21.2671C31.9251 21.4547 32.65 22.1102 32.2543 22.1402C28.5206 22.4241 22.8245 26.0405 21.5887 27.795C21.1954 28.3534 24.3762 27.406 23.8694 27.6821C23.3006 27.9919 22.6697 30.0205 22.2925 31.5873C22.0314 32.6663 21.867 34.0548 21.809 35.5653C21.7606 36.8694 21.7799 37.0852 21.9734 37.7982C22.1958 38.5957 22.3699 38.8302 22.6697 38.7176C22.7761 38.6801 22.8245 38.5394 22.8245 38.2767C22.8245 38.0703 22.9405 37.4511 23.0856 36.8975L23.3371 35.903L23.4435 36.3159C23.5789 36.7943 24.3719 38.2767 25.0876 39.3556C25.1262 39.4129 25.2923 39.3401 25.4421 38.9889C25.5785 38.6689 25.5231 38.1578 25.755 37.6099C26.283 36.3619 27.3199 34.7394 28.5206 33.4406C30.295 31.5211 30.8837 29.2996 32.547 27.5164C35.6511 24.1885 39.547 22.1381 39.0047 21.9316Z" fill="white"/>
<path fill-rule="evenodd" clip-rule="evenodd" d="M23.9135 28.1349C23.4156 28.5233 22.6764 31.6739 22.6637 31.7265C22.4026 32.8055 22.1509 36.5522 22.4082 37.2616C22.6655 37.9709 23.386 35.4138 23.386 35.4138C23.386 35.4138 24.4749 38.1569 25.4372 38.909C25.4783 38.9411 24.2934 35.5152 23.9135 33.5153C23.4119 30.8752 24.1969 27.9138 23.9135 28.1349Z" fill="white"/>
<path fill-rule="evenodd" clip-rule="evenodd" d="M42.4732 83.3125C43.4017 83.1155 44.9683 82.4294 45.5681 82.1948C46.168 81.9602 47.9957 79.4565 48.6534 76.6326C49.1273 74.5497 49.3691 71.585 49.0983 71.0878C49.0583 71.0172 48.912 69.6691 49.3014 70.1093C50.1671 71.0878 51.1946 72.6239 54.4369 69.8713C55.32 69.1216 56.4905 68.154 56.1823 67.2986C55.32 64.9052 51.5821 60.086 51.0123 59.7209C50.331 59.2844 46.8873 59.6553 41.7624 58.188C35.9504 56.5239 33.5303 51.6238 31.2559 52.2616C29.4166 52.7775 25.0097 55.9476 23.9037 57.955C18.6823 67.4324 25.0097 74.0733 26.4506 75.9807L27.8498 76.5669L27.8981 77.7772L27.9658 78.5371C28.0915 79.9913 28.1399 80.1227 28.8169 80.6105C30.5094 81.8583 33.8462 83.0217 36.8637 83.4345C38.2661 83.6221 41.3126 83.5565 42.4732 83.3125Z" fill="white"/>
<path fill-rule="evenodd" clip-rule="evenodd" d="M28.4 77.3341L28.4677 78.0941C28.5934 79.5483 28.6418 79.6796 29.3188 80.1675C30.3173 80.9036 31.888 81.6104 33.6278 82.151C34.8371 82.5267 36.1282 82.8222 37.3656 82.9915C38.768 83.1791 41.8145 83.1135 42.9751 82.8695C43.5488 82.749 38.83 79.1528 36.0502 80.1675C33.9154 80.9468 28.8838 75.0027 30.9296 73.4498C33.2245 71.7078 29.0192 64.837 28.8838 63.3453C28.7484 61.8536 28.2152 61.4972 28.1996 61.5496C28.1841 61.6019 28.1841 61.7803 28.2259 62.2103C28.4064 64.0639 28.4 77.3341 28.4 77.3341Z" fill="white"/>
<path fill-rule="evenodd" clip-rule="evenodd" d="M27.8961 62.9195C28.0992 62.8811 28.2958 63.0097 28.3353 63.2067C29.0653 66.8445 32.1529 69.3073 37.6739 70.5952C43.2278 71.8906 47.0108 71.8208 49.0041 70.4379C49.1724 70.3212 49.0469 71.3209 48.9237 71.3975C47.6236 72.2063 43.2035 73.413 37.9287 72.3223C31.1843 70.9278 28.0176 65.4265 27.6 63.3455C27.5605 63.1485 27.6931 62.9578 27.8961 62.9195Z" fill="white"/>
<path fill-rule="evenodd" clip-rule="evenodd" d="M25.0836 56.356C25.2632 56.2563 31.9618 63.7037 41.1547 65.3895C50.3476 67.0752 52.5733 66.0031 52.9311 63.7037C52.962 63.5053 53.1528 63.3687 53.3574 63.3987C53.5619 63.4286 53.7027 63.6137 53.6718 63.8122C53.2184 66.7263 48.9647 67.4194 41.0287 66.1058C33.1924 64.8086 27.8199 61.7266 24.9445 56.8518C24.8418 56.6776 24.9041 56.4557 25.0836 56.356Z" fill="white"/>
<path fill-rule="evenodd" clip-rule="evenodd" d="M63.6676 55.943C63.4161 55.8586 63.1453 55.6709 62.9713 55.4551L62.6811 55.108L63.7063 54.1229C65.2828 52.6218 66.4917 51.0831 67.5363 49.2536C67.8844 48.6438 68.7645 46.6079 68.7645 46.4109C68.7645 46.3452 68.8709 46.0825 68.9967 45.8104C69.1901 45.4164 69.3352 45.2663 69.751 45.0411C70.2443 44.7597 70.8053 44.6658 71.047 44.8253C71.5113 45.1256 71.5113 46.0731 71.047 47.7056C70.5345 49.4976 69.8478 50.7829 68.426 52.6312C68.2036 52.9126 67.7877 53.4662 67.4879 53.8508C66.6852 54.8828 66.1629 55.3801 65.4569 55.7648C64.7605 56.14 64.3543 56.1869 63.6676 55.943ZM70.6118 55.0986L71.3082 55.3989C71.4526 55.4635 73.0455 56.206 74.9589 57.0978C78.0438 58.5357 81.9618 60.3619 81.9857 60.3619C82.0243 60.3619 82.2058 59.9548 82.2468 59.48C82.3435 58.4574 82.7014 57.0689 83.1172 56.1025C83.3107 55.6709 83.4654 55.1316 83.4654 55.0846C83.4654 55.0632 83.3082 55.0017 83.0508 54.901C82.7444 54.7811 82.296 54.6057 81.8019 54.3762C79.3647 53.241 74.5965 50.9236 74.0066 50.5765C73.4263 50.2481 73.3102 50.22 73.3102 50.4358C73.3102 50.7172 72.7203 52.0213 72.2657 52.725C72.0239 53.1096 71.55 53.8039 71.2115 54.2636L70.6118 55.0986ZM81.8212 58.6732C82.0986 58.8291 81.6181 59.0578 81.5021 59.0954C80.8187 59.1517 80.0142 59.027 79.355 58.6544C79.0103 58.4173 76.2964 56.9547 74.4962 55.9845C73.6732 55.541 73.0411 55.2004 72.9137 55.1268C72.5075 54.8922 72.1206 54.6389 72.0529 54.5639C71.8498 54.3106 72.0432 54.198 72.6139 54.2449C72.9569 54.2731 81.2222 58.3364 81.8212 58.6732ZM42.5061 83.2353C43.2522 83.077 44.4103 82.6029 45.1478 82.301L45.148 82.3009C45.3282 82.2271 45.4833 82.1636 45.6011 82.1175C46.2009 81.8829 48.0286 79.3793 48.6863 76.5553C49.1602 74.4725 49.402 71.5078 49.1312 71.0105C48.9679 70.7225 49.938 71.6886 50.6603 72.4081L50.6608 72.4086C50.8796 72.6265 51.0757 72.8217 51.2106 72.9526C55.4274 77.015 61.7043 80.2799 68.2229 81.8092C71.4726 82.5785 73.7841 82.8506 76.8887 82.8506C82.1017 82.8506 86.2121 81.8561 89.9454 79.6701C90.1227 79.5663 90.2889 79.4708 90.4473 79.3799C91.7486 78.6325 92.5239 78.1872 94.6458 75.8704C97.0259 73.2716 99.1431 67.239 99.8491 65.1561C100.159 64.2179 100.913 60.4863 100.913 59.5551C100.913 58.4526 100.516 57.932 99.9748 57.3972C99.0173 56.4872 97.7213 56.1588 96.6478 56.5528L96.1449 56.7405L95.9901 56.2432C95.7677 55.4927 95.3034 54.8922 94.5877 54.4419C93.5238 53.757 93.3691 53.7101 92.4116 53.7101C91.6669 53.7101 91.4638 53.7476 90.9899 53.9634L90.4386 54.2073L90.3225 53.8696C90.1001 53.1753 89.354 52.2075 88.7751 51.9275C88.2617 51.6792 87.373 51.6565 86.7537 51.768C85.3997 52.012 84.4325 52.6218 84.036 53.4755C83.9199 53.7382 83.7749 53.9446 83.7168 53.9446C83.6685 53.9446 81.7632 53.4285 79.4904 52.4527C79.107 52.2876 78.7468 52.1328 78.4086 51.9873L78.4086 51.9873C74.3272 50.2325 73.4426 49.8521 73.523 49.3756C73.5907 48.9722 73.5713 48.747 73.4553 48.3999C73.2522 47.8182 73.0201 47.6587 72.3624 47.6587C71.8401 47.6587 71.8401 47.6587 71.8981 47.4054C72.2076 45.9699 72.198 45.1443 71.8691 44.6189C71.6467 44.2718 71.3855 44.1311 70.7859 44.0466C70.4377 43.9997 70.2733 44.0279 69.8864 44.2343C69.6253 44.3656 69.4029 44.4594 69.3835 44.4407C69.3642 44.4219 69.4319 43.9059 69.5383 43.2961C70.3313 38.7833 69.7187 34.8951 67.6973 30.767C67.6779 30.7275 67.6555 30.6808 67.6298 30.6274C67.0153 29.3476 64.5444 24.2015 57.4778 21.6049C57.1579 21.4873 56.8553 21.3737 56.5644 21.2645C54.1572 20.3606 52.557 19.7597 48.696 19.766C44.3684 19.773 42.9027 20.3664 40.0496 21.633C39.653 21.8113 39.3048 21.9145 39.2758 21.8769C39.2468 21.83 39.063 21.7174 38.8793 21.6236C38.6955 21.5298 38.299 21.2952 38.0088 21.1076C37.1771 20.5634 36.6645 20.3383 36.4034 20.3946C36.1035 20.4696 36.1035 20.7136 36.4034 20.8261C36.5291 20.8731 36.6742 21.0325 36.7322 21.192C36.8579 21.5298 37.003 21.5673 37.09 21.2859C37.1287 21.1827 37.1868 21.1076 37.2158 21.1264C37.2268 21.1317 37.2635 21.1484 37.3196 21.1739L37.3198 21.174L37.32 21.174C37.4614 21.2382 37.7252 21.3581 38.0088 21.4923C38.4054 21.6799 38.8406 21.8769 38.9567 21.9238C39.1694 21.9989 39.1017 22.0552 38.1829 22.5806C34.5948 24.6259 31.6739 27.8064 30.0394 31.4278C29.788 31.972 29.5655 32.3097 29.3334 32.4974C28.7434 32.9758 27.5829 34.3362 27.312 34.871C27.167 35.1619 26.8575 35.6122 26.6157 35.8749C26.3836 36.1376 26.1321 36.4753 26.0451 36.6161C25.9677 36.7662 25.8903 36.8694 25.8613 36.8506C25.842 36.8225 25.871 36.3628 25.9387 35.828C26.0838 34.5802 26.0838 34.2518 25.9677 34.2237C25.7936 34.1767 25.5421 34.8335 25.4358 35.6497C25.3584 36.147 25.339 36.8975 25.3874 37.6669L25.4454 38.8865L24.7587 37.8076C24.5222 37.4462 24.2893 37.0848 24.1241 36.8284C24.0191 36.6656 23.9415 36.5451 23.9076 36.4941C23.6562 36.1376 23.5111 35.6028 23.6175 35.4246C23.6755 35.3214 23.6659 35.2744 23.5691 35.2744C23.366 35.2744 22.9695 35.903 22.7084 36.6255C22.5826 36.9632 22.4569 37.2447 22.4182 37.2447C22.2731 37.2447 22.3408 33.8859 22.4956 32.807C22.8148 30.6773 23.6562 28.0503 24.0334 28.0503C24.1107 28.0503 24.1785 28.0128 24.1785 27.9565C24.1785 27.7876 23.927 27.8533 23.7239 28.0691C23.2693 28.5475 22.6697 30.0205 22.2925 31.5873C22.0314 32.6662 21.8669 34.0548 21.8089 35.5653C21.7605 36.8694 21.7799 37.0852 21.9733 37.7982C22.1958 38.5957 22.3699 38.8302 22.6697 38.7176C22.7761 38.6801 22.8244 38.5394 22.8244 38.2767C22.8244 38.0703 22.9405 37.4511 23.0856 36.8975L23.337 35.903L23.4434 36.3158C23.5788 36.7943 24.3719 38.2767 25.0876 39.3556C25.5808 40.0874 25.5905 40.1343 25.7549 41.2789C25.842 41.9263 26.1128 43.5009 26.7414 45.923C27.2969 48.0631 30.4195 50.1861 31.1992 50.7162L31.1993 50.7163C31.302 50.7861 31.364 50.8283 31.3741 50.8392C31.4708 50.9424 31.6062 50.9987 31.6836 50.9705C31.7707 50.9424 31.819 50.9799 31.819 51.0831C31.819 51.177 31.8867 51.2989 31.9641 51.3552C32.0608 51.4209 32.1285 51.6742 32.1479 52.1152C32.1962 52.9971 32.8732 54.6858 33.3955 55.2394C33.734 55.5959 34.44 55.746 35.2234 55.6146C35.736 55.5396 35.8811 55.4833 35.8327 55.3707C35.8037 55.2957 35.9875 55.3895 36.2389 55.5771C39.1791 57.7537 42.158 59.0578 45.5043 59.6208C46.8003 59.8365 48.9474 59.9585 50.1177 59.8741C50.8713 59.8262 51.0761 59.8133 51.1131 59.8858C51.1269 59.9129 51.1173 59.9519 51.1042 60.0054C51.0365 60.2681 51.1235 60.4276 52.5453 62.7637C53.6768 64.612 53.7736 64.734 55.0309 65.9818C57.7002 68.6556 60.6114 70.7291 63.9094 72.3334C67.014 73.8345 71.9707 75.0823 76.5018 75.4764C81.033 75.8704 84.2875 71.8361 84.2778 70.8041C84.2584 69.3874 84.0553 68.4586 83.5621 67.5579C83.0785 66.6854 82.7594 66.3852 81.3086 65.447C79.6935 64.4056 78.6973 63.5518 78.0396 62.6418C77.6237 62.0695 77.469 61.4221 77.469 61.075C77.469 60.8498 77.7688 60.3432 78.2137 60.24C78.6199 60.1368 78.6973 60.1462 79.1518 60.3619C79.4226 60.4839 80.1287 60.8029 80.709 61.075C81.2989 61.3377 81.8696 61.6004 81.9856 61.6567C82.3278 61.7489 82.4724 62.3986 82.5508 62.7507L82.5508 62.7508L82.5509 62.751L82.5511 62.7517C82.5685 62.8299 82.5826 62.8934 82.5949 62.9326C82.7303 63.4205 83.3711 64.0504 83.7845 64.2649C84.5106 64.6415 86.2993 64.6918 86.7926 64.1758C86.9183 64.0445 87.3352 63.883 87.4211 63.9319C87.507 63.9808 87.8176 64.3868 87.8176 64.7152C87.8273 65.2781 88.1271 65.7941 88.7654 66.3101C89.9744 67.2859 90.9125 67.5204 91.8603 67.0888C92.3536 66.8637 92.7578 66.7757 92.7578 66.7757C92.7578 66.7757 93.161 67.2748 93.1853 67.4454C93.3753 68.7784 95.4098 69.3372 95.9514 69.3935C96.0755 69.4055 96.3171 69.354 96.5625 69.3017C96.8905 69.2317 97.2254 69.1603 97.2958 69.2373C97.434 69.3885 94.9843 73.3185 94.6458 73.8157C91.4251 78.5067 85.1579 81.3776 77.4883 81.6779C72.5075 81.8749 66.3853 80.5239 61.0756 78.0658C57.6809 76.4802 54.673 74.5382 51.4524 71.8174C50.8914 71.3483 50.2434 70.8135 50.0113 70.6259C49.7792 70.4476 49.2279 69.8378 48.8024 69.2748C48.0867 68.3366 47.6804 67.9989 47.6804 68.3179C47.6804 68.4586 48.1447 69.3218 48.6766 70.1755C48.8894 70.5133 49.0248 70.7478 48.9764 70.7103C48.9281 70.6728 48.7733 71.3483 48.6283 72.2114C48.1544 74.9791 47.371 77.7093 46.5779 79.4074C46.1427 80.3269 45.3082 81.0135 45.0567 81.2011C44.1282 81.886 42.7383 82.1939 40.8136 82.3815C38.3764 82.6161 34.7882 82.0907 32.0511 81.0962C31.3258 80.8335 29.4591 80.0735 29.3334 79.9891C29.3259 79.9818 29.283 79.7118 29.2232 79.3351L29.169 78.9946C28.8208 76.6773 28.3372 67.755 28.3372 63.6269C28.3372 61.9194 28.3179 61.5441 28.2018 61.5441C27.96 61.5441 27.8633 61.7692 27.7569 62.5761C27.5152 64.415 27.5635 74.0128 27.8246 76.0299L27.8827 76.4896L27.5538 76.3114C27.0509 76.0299 25.1359 74.1441 24.4686 73.2716C23.9036 72.5256 23.5679 71.5703 23.3166 70.8556L23.3166 70.8555C23.2582 70.6893 23.2043 70.5361 23.1533 70.4016C21.7509 66.63 22.2441 62.3978 24.1785 58.5887C25.8226 55.3426 27.844 53.5412 30.8035 52.6687C31.2871 52.528 31.7126 52.3778 31.761 52.3403C31.9447 52.1714 30.7648 52.2559 30.1168 52.4529C28.0084 53.0815 25.8033 54.7984 24.3042 56.9938C22.1958 60.0711 21.248 64.612 21.9153 68.4868C22.07 69.4062 22.6987 71.3952 22.8728 71.5359C22.8882 71.5509 22.9677 71.7127 23.088 71.9575L23.0881 71.9576C23.4207 72.6345 24.0649 73.9456 24.5266 74.5382C25.0876 75.2793 26.7801 76.893 27.4861 77.3903L27.931 77.6999L27.9987 78.4598C28.1245 79.914 28.1728 80.0454 28.8498 80.5333C30.5424 81.7811 33.8791 82.9444 36.8966 83.3572C38.299 83.5449 41.3455 83.4792 42.5061 83.2353ZM75.1961 74.4256C69.5769 73.9471 62.7875 71.3481 57.8743 67.3326C55.8046 65.6344 53.1159 62.3321 52.052 60.5027C51.8295 60.1274 51.6651 59.9491 51.4717 59.9022C51.2686 59.8459 51.4427 59.7896 52.2744 59.6583C55.7852 59.0766 59.1993 57.6599 61.9557 55.6428L62.3619 55.3519L62.478 55.624C62.7391 56.2338 63.745 56.8531 64.4897 56.8531C64.7895 56.8531 65.7953 56.4121 66.4047 56.0087L66.8205 55.7366L67.159 56.065C67.4685 56.3652 67.5266 56.384 68.1069 56.384C68.7742 56.384 69.5769 56.0931 70.0218 55.6803L70.2636 55.4645L70.9503 55.9055C71.3178 56.1588 72.343 56.7123 73.2231 57.1533C74.5385 57.81 75.9312 58.57 77.2562 59.3581L77.469 59.4894L77.2659 59.7521C77.0531 60.0336 76.6567 60.5683 76.6567 61.3846C76.6567 62.304 77.6423 63.9559 79.529 65.0905C81.0112 65.9818 83.5621 67.7349 83.4654 70.2975C83.4537 70.607 83.0978 71.3764 82.6239 72.0707C82.3144 72.5116 81.4537 73.1684 80.6703 73.553C79.3356 74.2004 76.9854 74.5757 75.1961 74.4256ZM23.6272 32.3097C23.8883 32.366 24.0624 32.4505 24.0237 32.488C23.898 32.6099 23.2306 32.5537 23.0759 32.4035C22.8341 32.1784 22.8921 32.0189 23.2306 31.9532C23.4047 31.9251 23.6658 31.7843 23.8109 31.6436C23.956 31.5029 24.0817 31.4372 24.0817 31.4841C24.0817 31.6061 23.5981 32.0376 23.3563 32.1315C23.2016 32.1971 23.25 32.2253 23.6272 32.3097ZM27.4765 32.4598C27.7569 32.3097 27.6989 32.2065 27.3701 32.2534C27.0412 32.3003 27.0219 32.2628 27.2347 31.9438C27.3217 31.8219 27.3701 31.6436 27.3507 31.5498C27.3217 31.4278 27.254 31.4841 27.0993 31.7843C26.9832 32.0001 26.8188 32.1784 26.7414 32.1784C26.4996 32.1784 26.4803 32.366 26.7124 32.4505C27.0122 32.5724 27.2443 32.5724 27.4765 32.4598ZM24.1301 27.3373C23.898 27.3748 23.1726 27.6562 22.5343 27.9659C21.8863 28.2661 21.335 28.5194 21.2963 28.51C20.3098 28.4068 21.6832 26.8119 24.1785 25.1794C26.5673 23.6126 28.1825 22.787 29.6816 22.3648C30.6197 22.1021 31.6739 22.0646 31.9738 22.2804C32.1382 22.4023 32.0802 22.4117 31.3645 22.4211C29.817 22.4211 28.0278 23.1904 25.1166 25.0762C23.6078 26.0519 21.8573 27.4498 21.8573 27.675C21.8573 27.7219 22.1377 27.6281 22.4859 27.478C23.2306 27.1496 23.9947 26.9807 24.3332 27.0558C24.691 27.1496 24.6137 27.2716 24.1301 27.3373ZM27.873 28.1441C28.7821 27.9658 28.8208 27.9565 28.8208 27.8626C28.8208 27.8157 28.4727 27.7688 28.0374 27.7501L27.254 27.7219L27.9794 26.9244C28.3759 26.4835 28.8402 26.0425 29.0046 25.9393C29.3624 25.7142 29.3818 25.5547 29.0916 25.4609L28.8692 25.3952L29.111 25.3107C29.2464 25.2638 29.4978 25.2451 29.6719 25.2732C29.9331 25.3107 29.9911 25.292 29.9621 25.1606C29.9331 25.0293 29.8267 25.0011 29.3528 25.0105C27.9697 25.0293 27.3798 25.3858 28.463 25.5547C28.7628 25.6016 29.0143 25.6766 29.0143 25.7235C29.0143 25.7611 28.9659 25.7986 28.9079 25.7986C28.7241 25.7986 27.167 27.3279 26.9736 27.7032C26.6737 28.2567 26.8382 28.3411 27.873 28.1441ZM34.2563 24.5039C33.9758 24.5227 33.9081 24.5696 33.9274 24.7009L33.9304 24.72C33.9412 24.7889 33.9474 24.8287 33.9318 24.8411C33.9105 24.8581 33.8484 24.8239 33.7013 24.743L33.676 24.7291C33.4922 24.6352 33.4729 24.5883 33.5793 24.5133C33.647 24.457 33.8307 24.3725 33.9758 24.3444L34.2466 24.2787L34.0435 24.0723C33.9371 23.9504 33.8791 23.8378 33.9081 23.8002C33.9855 23.7252 34.9333 23.8284 35.0687 23.9316C35.1267 23.9785 35.2138 23.9691 35.2718 23.9128C35.4072 23.7815 35.591 23.8847 35.591 24.0911C35.591 24.2037 35.5619 24.2131 35.4749 24.1286C35.3975 24.0536 35.3298 24.0536 35.2428 24.1192C35.1654 24.1849 35.1074 24.1849 35.059 24.1098C35.03 24.0629 34.8462 24.016 34.6528 24.016C34.4734 24.016 34.3891 24.016 34.3725 24.0496C34.3578 24.0793 34.3963 24.1354 34.4691 24.2412C34.6233 24.475 34.6142 24.4757 34.2596 24.5036L34.2563 24.5039ZM32.7862 22.0083C32.7862 21.8863 32.6701 21.6705 32.525 21.5298L32.2542 21.2671L33.705 21.3234C34.5077 21.3609 35.4168 21.4454 35.736 21.5298C36.0552 21.6048 36.4227 21.6611 36.5581 21.6611C36.7612 21.6611 36.7225 21.6236 36.3453 21.4266C35.6877 21.0982 34.8462 20.9387 33.2311 20.8261C31.2967 20.6948 30.3199 20.873 30.5037 21.3421C30.5327 21.436 30.6874 21.4829 30.9196 21.4829C31.3935 21.4829 32.1672 21.755 32.4283 22.0083C32.7088 22.2803 32.7862 22.2803 32.7862 22.0083ZM28.0664 46.8518C28.8498 47.8276 29.8847 48.9346 30.3683 49.3099C30.6584 49.5351 30.9099 49.7227 30.9292 49.7227C30.9389 49.7227 30.7261 49.2912 30.4553 48.7658C29.3624 46.6548 28.7241 44.5532 28.4243 42.1327C28.3566 41.5979 28.2502 41.1476 28.1341 40.9599C27.902 40.5847 27.902 40.0968 28.1438 39.6371C28.2695 39.3931 28.3372 39.0835 28.3372 38.7458V38.2298L27.873 38.6989C27.4184 39.1586 26.9832 39.3462 26.9832 39.0648C26.9832 38.8584 27.6989 37.8639 28.0761 37.5543C28.3759 37.3103 28.4146 37.2259 28.5113 36.4941C28.579 36.0531 28.7338 35.2744 28.8595 34.7584C28.9949 34.2424 29.0723 33.8015 29.0529 33.7827C28.9852 33.717 26.7124 36.2492 26.4029 37.057C26.335 37.2344 26.1514 37.5449 26.0064 37.7325L25.7549 38.0457C25.7549 38.0457 25.833 38.4843 25.9193 39.0355C26.0065 39.5923 26.0474 39.9751 26.0839 40.3161C26.1326 40.7722 26.1734 41.1534 26.3062 41.7762C26.4609 42.5455 26.6157 43.2116 26.6544 43.2585C26.6834 43.3148 26.8091 43.7464 26.9348 44.2249C27.2057 45.285 27.6602 46.3358 28.0664 46.8518ZM67.3138 55.7272L67.1107 55.5302C67.1107 55.5302 70.4817 51.3756 71.0857 49.8447C71.5467 48.6764 71.8179 48.3452 72.184 48.3452C72.3887 48.3452 72.5558 48.3905 72.6332 48.5031C72.7686 48.7001 72.899 48.944 72.7249 49.779C72.4348 51.13 71.9899 52.0213 70.6552 53.9446C70.3457 54.3856 69.9492 54.8735 69.7751 55.0423C69.3689 55.4082 68.455 55.7835 67.9231 55.868C67.5846 55.9149 67.4879 55.8961 67.3138 55.7272Z" fill="black"/>
<path d="M94.0944 64.9053C95.2977 61.725 95.1156 61.0475 94.9069 60.9812C94.9069 60.9812 94.4474 61.2345 94.2443 61.7693C93.8671 62.7731 92.576 65.4001 92.0924 65.8692C91.5218 66.4227 91.5218 66.4227 90.9415 66.4227C90.3612 66.4227 88.6876 65.575 88.4597 64.7394C88.0952 63.4024 89.6649 58.7576 89.7035 58.4949L89.4424 58.3167C89.2683 58.4762 87.0039 65.1374 84.0263 63.4017C83.6854 63.203 82.9624 62.2665 82.9044 61.7693C82.5822 60.3244 84.0608 55.2722 84.3123 54.2345C84.5374 53.3056 85.7092 52.4435 87.1502 52.4435C89.365 52.4435 89.0675 54.3216 90.0596 54.9834C90.4992 55.2766 91.2217 54.7449 91.4444 54.7046C92.6921 54.4794 93.1701 54.7416 94.0848 55.4458C94.7908 55.9893 95.3132 57.0651 95.8881 57.4442C96.2075 57.6547 96.5464 57.3669 96.6574 57.3128C97.1125 57.0912 98.0888 57.2565 98.3596 57.4442C98.7566 57.6121 99.7295 58.5192 99.8832 59.0469C100.58 61.4382 98.3802 66.7396 97.5498 67.7341C96.1753 69.3803 92.8912 68.0855 94.0944 64.9053Z" fill="white"/>
<path fill-rule="evenodd" clip-rule="evenodd" d="M38.4925 56.1912C41.1425 57.8143 43.875 58.8744 46.9892 59.1653C49.4458 59.3904 52.7581 59.0808 55.1373 58.3303C57.1393 57.7017 59.8474 55.9603 61.656 54.4874C65.1668 51.6352 67.3816 47.1802 68.3487 42.4517C68.4841 41.7855 68.6906 40.1111 68.681 38.4505C68.681 36.5178 67.8041 31.2363 65.1474 28.191C59.668 21.9101 50.6609 19.0807 43.0911 21.4982C40.3604 22.3703 37.453 23.9503 35.2576 26.0144C32.4915 28.632 30.4508 32.1971 29.6384 35.8373C28.7873 39.684 29.8944 44.2812 31.8191 48.0527C33.3568 51.055 35.8908 54.5869 38.4925 56.1912ZM64.3156 44.8535C62.4974 50.1543 57.7583 54.1135 51.8006 55.3144C50.8914 55.4927 50.2628 55.5583 48.9861 55.5771C48.0867 55.6053 47.1872 55.5959 47.0035 55.5771C42.835 55.0892 39.6627 53.5975 36.7419 50.7641C35.4652 49.5163 34.9236 48.8408 34.1306 47.5086C32.8829 45.3976 32.2156 43.2398 32.0125 40.6409C31.3161 31.7374 37.8831 24.3162 47.1292 23.5469C50.756 23.2467 54.7794 24.3256 57.8357 26.4272C58.9672 27.2059 61.0176 29.1761 61.6559 30.0956C61.9171 30.4615 64.451 34.0548 64.8959 36.1188C65.4665 38.8021 65.2441 42.1608 64.3156 44.8535Z" fill="white"/>
<path fill-rule="evenodd" clip-rule="evenodd" d="M68.6844 38.4505C68.6844 44.7478 65.6136 51.6325 61.6506 54.5727C59.7599 55.9755 57.289 57.6741 55.1372 58.3303C51.9839 59.292 46.9892 59.1653 46.9892 59.1653C46.9892 59.1653 52.0848 58.5045 53.9732 57.7673C59.3881 55.6534 62.344 52.4083 64.1693 49.2948C67.7723 43.1487 68.6844 38.2975 68.6844 38.4505Z" fill="white"/>
<path fill-rule="evenodd" clip-rule="evenodd" d="M47.1002 54.4513C44.5179 54.1323 41.9549 53.241 39.8852 51.9181C38.6569 51.1394 36.7999 49.3099 35.9005 48.0058C34.6141 46.1294 33.763 44.1217 33.3472 41.9638C33.0473 40.397 33.057 37.9859 33.3568 36.5879C33.6663 35.1619 34.0629 34.0736 34.7689 32.6944C35.591 31.0995 36.4614 29.9267 37.7671 28.6601C39.9916 26.5023 42.5739 25.1325 45.6494 24.4758C46.6456 24.2694 50.2531 24.1005 50.3789 24.26C50.4079 24.3069 50.6013 24.4288 50.8044 24.5321C51.0075 24.6446 51.5491 25.0387 51.994 25.4233C52.6613 25.9863 52.9612 26.3428 53.5415 27.2247C53.938 27.8251 54.2572 28.3693 54.2572 28.4162C54.2572 28.5194 54.5667 28.707 54.7407 28.707C54.9825 28.707 55.1469 28.0034 55.1953 26.765C55.2243 26.0801 55.2824 25.5172 55.321 25.5172C55.4564 25.5172 56.9459 26.3146 57.6422 26.765C59.0059 27.6469 60.3696 28.8853 61.3755 30.18C61.83 30.7617 61.8977 30.9118 61.8977 31.2683C61.8977 31.5967 61.9944 31.85 62.2943 32.3566C63.0486 33.6326 63.6386 35.2369 63.9965 37.0101C64.2286 38.2016 64.2286 40.4533 63.9868 41.7011C63.3291 45.1349 61.3755 48.55 58.8318 50.7172C56.6751 52.5467 54.3829 53.6726 51.6748 54.2261C50.7464 54.4231 47.9609 54.5545 47.1002 54.4513ZM40.185 48.034C40.272 47.9402 40.33 47.7995 40.301 47.7338C40.2923 47.7141 40.1712 47.6588 39.994 47.578L39.9939 47.578C39.5807 47.3895 38.8623 47.0619 38.551 46.7205C37.3131 45.3507 36.8585 44.3281 36.578 42.2172C36.3072 40.1625 36.5347 38.7735 37.0229 36.541C37.2611 35.452 37.894 34.5525 38.2878 33.9928C38.5556 33.6123 38.7128 33.3889 38.5601 33.3699C38.1829 33.3136 38.1249 33.3418 37.7284 33.7077C36.8773 34.4958 36.4904 35.1244 36.0842 36.3346C35.4556 38.2298 35.3341 43.3515 36.578 45.6604C37.8219 47.9692 39.9625 48.2779 40.185 48.034ZM53.938 40.1531C53.7738 41.6106 53.0772 43.7183 52.2648 44.6377C51.8876 45.0693 50.5031 45.8105 49.3343 45.6604C48.2055 45.5154 47.3226 45.0036 46.5683 43.9059C45.9203 42.9583 45.5856 41.8081 45.3593 40.3595C44.9686 37.858 46.6746 34.9461 47.4097 34.2237C48.1544 33.4825 48.6863 33.2198 49.3633 33.2104C50.021 33.2104 50.4466 33.3511 51.1139 33.8109C52.3325 34.6365 54.2572 37.321 53.938 40.1531ZM40.9007 32.3942C41.0941 32.1784 41.1231 32.0752 41.0651 31.6718C41.0264 31.2965 40.949 31.1464 40.7459 30.9869C40.3881 30.7054 39.9432 30.7054 39.6143 31.0056C39.3822 31.2214 39.3532 31.2965 39.3822 31.8125C39.4112 32.366 39.4306 32.4036 39.7497 32.5724C40.1753 32.7976 40.5912 32.7319 40.9007 32.3942ZM46.9358 26.6055C45.1949 27.8158 44.4405 28.313 43.6571 28.7821C43.0381 29.1574 42.8447 29.1668 42.8447 28.829C42.8447 28.6508 42.9801 28.4537 43.3282 28.1441L43.8118 27.7126L42.8737 27.5906C41.8195 27.4592 40.7943 27.1778 40.5718 26.962C40.2043 26.5961 40.5235 26.5117 41.568 26.6993C42.0323 26.7744 42.9317 26.8682 43.57 26.8869L44.7306 26.9339L45.5721 26.3428C47.4193 25.0481 49.3343 24.3163 50.2531 24.5414C50.8237 24.6728 50.756 24.8229 50.108 24.898C49.3633 24.9824 48.9088 25.2263 46.9358 26.6055Z" fill="white"/>
<path d="M49.4214 44.375C49.4214 44.3281 49.4796 44.2812 49.5572 44.2812C49.6348 44.2812 49.7317 44.3281 49.7608 44.375C49.7899 44.4313 49.7317 44.4688 49.6251 44.4688C49.5087 44.4688 49.4214 44.4313 49.4214 44.375Z" fill="white"/>
<path d="M50.0016 44.2906C50.0016 44.1874 50.2434 44.0935 50.5142 44.0935C50.727 44.1029 50.727 44.1029 50.5433 44.2343C50.3305 44.3938 50.0016 44.4219 50.0016 44.2906Z" fill="white"/>
<path d="M48.5025 44.0466C48.4735 43.9716 48.4348 43.8402 48.4058 43.7652C48.3768 43.6714 48.4251 43.6245 48.5509 43.6245C48.6573 43.6245 48.7443 43.6807 48.7443 43.7558C48.7443 43.8309 48.7733 43.9528 48.8023 44.0373C48.841 44.1405 48.812 44.1874 48.7056 44.1874C48.6186 44.1874 48.5219 44.1217 48.5025 44.0466Z" fill="white"/>
<path d="M49.0151 43.8121C48.9668 43.5306 49.0731 43.4368 49.4213 43.4368C49.5277 43.4368 49.6148 43.5306 49.6534 43.6901C49.7308 43.9622 49.6051 44.0935 49.2666 44.0935C49.1118 44.0935 49.0441 44.0279 49.0151 43.8121Z" fill="white"/>
<path d="M48.0286 43.859C47.8449 43.7183 47.8449 43.7183 48.048 43.7183C48.1737 43.7183 48.2607 43.7746 48.2607 43.859C48.2607 44.0279 48.2607 44.0279 48.0286 43.859Z" fill="white"/>
<path d="M49.9726 43.8496C49.8469 43.7276 49.9049 43.3617 50.0597 43.3054C50.3401 43.2022 50.4659 43.2492 50.5239 43.4931C50.5626 43.6338 50.5819 43.7558 50.5626 43.7652C50.4852 43.8496 50.0307 43.9059 49.9726 43.8496Z" fill="white"/>
<path d="M50.8334 43.6526C50.8043 43.6244 50.7753 43.5025 50.7753 43.3899C50.7753 43.2304 50.8527 43.1647 51.0848 43.1178C51.2879 43.0803 51.4137 43.0991 51.4717 43.1741C51.5684 43.3242 51.5684 43.5119 51.4814 43.5588C51.3073 43.6526 50.9011 43.7089 50.8334 43.6526Z" fill="white"/>
<path d="M47.5837 43.3617C47.5837 43.2492 47.6708 43.1553 47.7965 43.1272C48.048 43.0615 48.0383 43.0521 48.0867 43.2961C48.106 43.4368 48.0576 43.4931 47.8545 43.5118C47.6418 43.54 47.5837 43.5025 47.5837 43.3617Z" fill="white"/>
<path d="M48.3188 43.3711C48.1834 43.2304 48.2704 42.9677 48.4542 42.9677C48.5799 42.9677 48.6476 43.0334 48.6476 43.1459C48.6476 43.3242 48.4252 43.4743 48.3188 43.3711Z" fill="white"/>
<path d="M48.8991 43.0897C48.8217 42.9114 48.9861 42.7801 49.3053 42.7801C49.4504 42.7801 49.5181 42.8364 49.5181 42.9583C49.5181 43.0615 49.431 43.1553 49.3053 43.1929C48.9861 43.2679 48.9668 43.2679 48.8991 43.0897Z" fill="white"/>
<path d="M51.6943 43.0615C51.7234 43.0146 51.7718 42.9677 51.8009 42.9677C51.83 42.9677 51.8203 43.0146 51.7912 43.0615C51.7621 43.1178 51.7137 43.1553 51.6846 43.1553C51.6555 43.1553 51.6652 43.1178 51.6943 43.0615Z" fill="white"/>
<path d="M49.7695 42.902C49.6921 42.7144 49.7889 42.6206 50.0984 42.5737C50.2724 42.5549 50.3498 42.5924 50.3692 42.7238C50.4369 43.0334 49.8856 43.2022 49.7695 42.902Z" fill="white"/>
<path d="M47.4483 42.7425C47.3613 42.4329 47.3806 42.4048 47.6321 42.4048C47.7675 42.4048 47.8739 42.4423 47.8739 42.4892C47.8739 42.5361 47.9029 42.6393 47.9319 42.7144C47.9609 42.8082 47.9029 42.8645 47.7385 42.8926C47.5547 42.9302 47.487 42.8926 47.4483 42.7425Z" fill="white"/>
<path d="M50.6786 42.6393C50.6786 42.4704 50.7464 42.3954 50.9301 42.3485C51.2009 42.2828 51.3557 42.4141 51.3557 42.7144C51.3557 42.8363 51.2783 42.8739 51.0172 42.8739C50.7173 42.8739 50.6786 42.8457 50.6786 42.6393Z" fill="white"/>
<path d="M47.1583 42.6393C47.1292 42.5643 47.1486 42.4986 47.1971 42.4986C47.2553 42.4986 47.2941 42.5643 47.2941 42.6393C47.2941 42.7144 47.2747 42.7801 47.2553 42.7801C47.2359 42.7801 47.1971 42.7144 47.1583 42.6393Z" fill="white"/>
<path d="M48.135 42.7144C47.9996 42.5924 48.077 42.3297 48.2511 42.2828C48.3574 42.2547 48.4638 42.264 48.4928 42.2922C48.6089 42.3954 48.5412 42.6675 48.3961 42.7238C48.2124 42.7894 48.2124 42.7894 48.135 42.7144Z" fill="white"/>
<path d="M51.5878 42.6487C51.4814 42.3766 51.5975 42.1702 51.8683 42.1421C52.0714 42.1139 52.1294 42.1515 52.1294 42.3016C52.1294 42.6112 52.023 42.7801 51.8296 42.7801C51.7232 42.7801 51.6168 42.7238 51.5878 42.6487Z" fill="white"/>
<path d="M48.812 42.5267C48.696 42.4235 48.7346 42.2359 48.8991 42.1796C49.0828 42.1139 49.4697 42.3016 49.3633 42.4048C49.2279 42.5174 48.8797 42.6018 48.812 42.5267Z" fill="white"/>
<path d="M49.6534 42.2922C49.5664 42.1608 49.8759 41.9357 50.1273 41.9357C50.2434 41.9357 50.2917 41.992 50.2724 42.0952C50.2337 42.2828 49.7405 42.4329 49.6534 42.2922Z" fill="white"/>
<path d="M47.0036 42.2265C47.0036 42.1796 46.9745 42.0764 46.9455 41.992C46.9164 41.9075 46.9261 41.8419 46.9842 41.8419C47.1103 41.8419 47.2073 42.1984 47.0909 42.2734C47.0424 42.3016 47.0036 42.2828 47.0036 42.2265Z" fill="white"/>
<path d="M47.2645 42.0107C47.2065 41.8043 47.3226 41.6542 47.545 41.6542C47.6707 41.6542 47.7965 42.0201 47.7191 42.1421C47.6127 42.3016 47.3129 42.2077 47.2645 42.0107Z" fill="white"/>
<path d="M47.9416 42.0576C47.7965 41.9169 47.8835 41.5791 48.077 41.5322C48.2221 41.4947 48.2994 41.5416 48.3768 41.7105C48.4348 41.8325 48.4638 41.9544 48.4445 41.9732C48.3478 42.0576 47.9996 42.1233 47.9416 42.0576Z" fill="white"/>
<path d="M50.5529 42.0576C50.4272 41.9357 50.4852 41.8606 50.7754 41.7574C51.0172 41.6824 51.0849 41.6918 51.1332 41.8043C51.2203 42.0295 50.7367 42.2453 50.5529 42.0576Z" fill="white"/>
<path d="M51.404 41.8419C51.3073 41.6917 51.4427 41.5604 51.6942 41.5604C51.994 41.5604 52.0811 41.8043 51.8102 41.8794C51.5201 41.9544 51.4717 41.9451 51.404 41.8419Z" fill="white"/>
<path d="M52.2261 41.6167C52.2261 41.476 52.4006 41.3259 52.4782 41.4009C52.5461 41.4666 52.4103 41.748 52.3134 41.748C52.2649 41.748 52.2261 41.6917 52.2261 41.6167Z" fill="white"/>
<path d="M46.8779 41.4947C46.8391 41.4666 46.81 41.3446 46.8197 41.2414C46.8197 41.0631 46.8294 41.0631 46.9167 41.2695C47.0137 41.4947 46.9943 41.6073 46.8779 41.4947Z" fill="white"/>
<path d="M47.0615 41.354C46.9744 41.0256 46.9841 40.9975 47.2356 40.9975C47.516 40.9975 47.6901 41.3446 47.4774 41.476C47.2549 41.6073 47.1292 41.5698 47.0615 41.354Z" fill="white"/>
<path d="M50.3885 41.5416C50.3885 41.5135 50.4368 41.3634 50.4949 41.1945C50.6303 40.8192 50.9301 40.8004 50.9978 41.1663C51.0268 41.3071 51.0365 41.429 51.0268 41.4384C50.9785 41.4947 50.3885 41.5792 50.3885 41.5416Z" fill="white"/>
<path d="M47.7483 41.3071C47.7095 41.2789 47.6804 41.1663 47.6804 41.0631C47.6804 40.913 47.7095 40.9036 47.8259 40.9975C47.9035 41.0631 47.9714 41.1757 47.9714 41.2414C47.9714 41.3821 47.855 41.4197 47.7483 41.3071Z" fill="white"/>
<path d="M51.23 41.1194C51.1719 40.8286 51.2977 40.6973 51.5975 40.7348C51.7426 40.7535 51.7909 40.838 51.7909 41.0444C51.7909 41.2789 51.7522 41.3352 51.5395 41.354C51.3267 41.3821 51.2783 41.3352 51.23 41.1194Z" fill="white"/>
<path d="M52.1777 41.157C52.052 40.7817 52.0907 40.6691 52.3518 40.641C52.5839 40.6128 52.613 40.641 52.613 40.8849C52.613 41.0913 52.5549 41.1757 52.4099 41.2133C52.3035 41.2414 52.1971 41.2133 52.1777 41.157Z" fill="white"/>
<path d="M46.7326 40.6222C46.7326 40.4439 46.7518 40.3689 46.7807 40.4627C46.7999 40.5471 46.7999 40.6972 46.7807 40.7911C46.7518 40.8755 46.7326 40.8004 46.7326 40.6222Z" fill="white"/>
<path d="M46.9744 40.7441C46.8487 40.6316 46.9067 40.2657 47.0614 40.2094C47.2839 40.1249 47.3903 40.2281 47.3903 40.5377C47.3903 40.7348 47.3419 40.8098 47.2162 40.8098C47.1195 40.8098 47.0034 40.7817 46.9744 40.7441Z" fill="white"/>
<path d="M47.5548 40.4908C47.516 40.3501 47.4966 40.2 47.5354 40.1719C47.6324 40.078 47.6906 40.2282 47.6615 40.5002L47.6324 40.7629L47.5548 40.4908Z" fill="white"/>
<path d="M50.6786 40.4252C50.6786 40.322 50.7271 40.2657 50.7756 40.2938C50.8338 40.322 50.8726 40.4158 50.8726 40.4908C50.8726 40.5659 50.8338 40.6222 50.7756 40.6222C50.7271 40.6222 50.6786 40.5377 50.6786 40.4252Z" fill="white"/>
<path d="M51.1139 40.5471C50.9785 40.4064 51.0849 40.1531 51.3073 40.0968C51.5878 40.0311 51.5975 40.0311 51.6845 40.3032C51.7425 40.4721 51.7038 40.5096 51.4524 40.5471C51.2976 40.5753 51.1429 40.5659 51.1139 40.5471Z" fill="white"/>
<path d="M52.0037 40.3689C51.8973 40.2751 51.9263 39.9655 52.0327 39.9655C52.0907 39.9655 52.1294 39.9279 52.1294 39.8716C52.1294 39.8247 52.0714 39.7778 51.994 39.7778C51.8296 39.7778 51.6942 39.3181 51.8296 39.1867C52.0037 39.0179 52.1971 39.1961 52.3132 39.6558C52.3809 39.8998 52.4486 40.1812 52.4776 40.2751C52.5163 40.397 52.4776 40.4346 52.2938 40.4346C52.1681 40.4346 52.0327 40.4064 52.0037 40.3689Z" fill="white"/>
<path d="M52.5259 39.8716C52.4582 39.5902 52.2842 39.0273 52.1584 38.6145C51.965 38.014 51.9456 37.8639 52.052 37.7982C52.1197 37.7513 52.2068 37.7138 52.2358 37.7138C52.3422 37.7138 52.729 39.6371 52.6904 40.0124L52.6613 40.3877L52.5259 39.8716Z" fill="white"/>
<path d="M46.6359 39.8247C46.6359 39.6746 46.6552 39.6183 46.684 39.7121C46.7032 39.7966 46.7032 39.9279 46.684 39.9936C46.6552 40.0499 46.6359 39.9842 46.6359 39.8247Z" fill="white"/>
<path d="M46.8294 39.806C46.8681 39.4776 47.1485 39.4025 47.2259 39.7028C47.2936 39.9467 47.3129 39.9185 47.0228 40.0124C46.8197 40.0687 46.8003 40.0499 46.8294 39.806Z" fill="white"/>
<path d="M50.9108 39.7215C50.8334 39.4494 50.9978 39.2899 51.3073 39.3275C51.5394 39.3556 51.6265 39.759 51.433 39.881C51.1913 40.0311 50.9688 39.9654 50.9108 39.7215Z" fill="white"/>
<path d="M47.3903 39.6465C47.3903 39.487 47.4388 39.4025 47.5455 39.4025C47.6425 39.4025 47.6813 39.4682 47.6619 39.6089C47.6134 39.9092 47.3903 39.9373 47.3903 39.6465Z" fill="white"/>
<path d="M46.5295 39.2524C46.5295 39.1492 46.5584 39.1211 46.5872 39.1961C46.6161 39.2618 46.6065 39.3462 46.5776 39.3744C46.5488 39.4119 46.5199 39.3556 46.5295 39.2524Z" fill="white"/>
<path d="M46.7133 39.2243C46.7133 39.0835 46.7713 39.0273 46.9164 39.0273C47.0518 39.0273 47.1002 39.0742 47.0808 39.1867C47.0325 39.4307 46.7133 39.4588 46.7133 39.2243Z" fill="white"/>
<path d="M47.2452 39.1398C47.1775 38.971 47.1775 38.971 47.4677 38.8959C47.6418 38.8396 47.6805 38.8677 47.6805 39.0085C47.6805 39.2336 47.3323 39.3462 47.2452 39.1398Z" fill="white"/>
<path d="M50.7464 39.0085C50.6787 38.7739 50.8044 38.652 51.1429 38.652C51.3073 38.652 51.3557 38.7083 51.3557 38.8865C51.3557 39.0273 51.2976 39.1211 51.2203 39.1211C51.1429 39.1211 51.0172 39.1492 50.9398 39.1774C50.8528 39.2055 50.7851 39.1492 50.7464 39.0085Z" fill="white"/>
<path d="M51.5877 38.7927C51.5104 38.6051 51.6264 38.4643 51.8489 38.4643C51.9843 38.4643 52.0326 38.53 52.0326 38.6989C52.0326 38.8678 51.9843 38.9334 51.8392 38.9334C51.7328 38.9334 51.6168 38.8678 51.5877 38.7927Z" fill="white"/>
<path d="M46.6165 38.6613C46.6165 38.4643 46.839 38.2392 46.9357 38.3424C46.9744 38.3705 47.0034 38.5019 47.0034 38.6238C47.0034 38.7739 46.9453 38.8396 46.8099 38.8396C46.6842 38.8396 46.6165 38.7739 46.6165 38.6613Z" fill="white"/>
<path d="M47.1485 38.5488C47.0711 38.3142 47.1582 38.211 47.487 38.1641C47.7868 38.1266 47.8835 38.4362 47.6224 38.6238C47.371 38.8021 47.2162 38.7739 47.1485 38.5488Z" fill="white"/>
<path d="M50.6496 38.4925C50.5819 38.4362 50.5529 38.0891 50.6109 38.0891C50.6206 38.0891 50.7657 38.0515 50.9398 38.0046C51.2299 37.9202 51.2493 37.9296 51.2396 38.1829C51.2299 38.3705 51.1719 38.4643 51.0268 38.5019C50.7657 38.5676 50.727 38.5676 50.6496 38.4925Z" fill="white"/>
<path d="M50.2917 38.2767C50.2917 38.211 50.3206 38.1829 50.3591 38.211C50.3879 38.2485 50.3879 38.3048 50.3591 38.3424C50.3206 38.3705 50.2917 38.3424 50.2917 38.2767Z" fill="white"/>
<path d="M51.375 38.1266C51.404 37.9671 51.7039 37.7325 51.7716 37.8076C51.8006 37.8357 51.8489 37.9483 51.878 38.0703C51.9457 38.2579 51.9166 38.2767 51.6458 38.2767C51.4137 38.2767 51.346 38.2392 51.375 38.1266Z" fill="white"/>
<path d="M46.7133 38.1172C46.7133 38.0703 46.7618 37.9765 46.8103 37.9014C46.8879 37.7888 46.9073 37.7982 46.9073 37.9765C46.9073 38.089 46.8685 38.1829 46.8103 38.1829C46.7618 38.1829 46.7133 38.1547 46.7133 38.1172Z" fill="white"/>
<path d="M47.0034 37.9108C47.0034 37.6481 47.2065 37.5637 47.3613 37.7607C47.458 37.9014 47.458 37.9483 47.3613 38.014C47.1582 38.136 47.0034 38.0984 47.0034 37.9108Z" fill="white"/>
<path d="M49.9436 37.7888C49.7695 37.6012 49.7695 37.5918 49.934 37.6481C50.0307 37.6856 50.1564 37.7138 50.2048 37.7138C50.2531 37.7138 50.2918 37.7794 50.2918 37.8545C50.2918 38.0515 50.1564 38.0327 49.9436 37.7888Z" fill="white"/>
<path d="M47.8642 37.7794C47.4483 37.4698 47.3903 36.7756 47.7772 36.7756C48.0383 36.7756 48.2801 37.1696 48.2414 37.5355C48.2124 37.8733 48.0963 37.9483 47.8642 37.7794Z" fill="white"/>
<path d="M50.5143 37.8357C50.5531 37.8076 50.6113 37.8076 50.6501 37.8357C50.6792 37.8733 50.6501 37.9014 50.5822 37.9014C50.5143 37.9014 50.4852 37.8733 50.5143 37.8357Z" fill="white"/>
<path d="M51.9747 37.4698C52.0038 37.3854 52.0329 37.301 52.0329 37.2822C52.0329 37.2634 52.0813 37.2447 52.1298 37.2447C52.188 37.2447 52.2268 37.3291 52.2268 37.4323C52.2268 37.5449 52.1589 37.62 52.0716 37.62C51.965 37.62 51.9359 37.573 51.9747 37.4698Z" fill="white"/>
<path d="M46.9067 37.4417C46.9067 37.2259 47.1098 36.8694 47.2259 36.8694C47.429 36.8694 47.2839 37.4698 47.0712 37.5074C46.9841 37.5261 46.9067 37.498 46.9067 37.4417Z" fill="white"/>
<path d="M49.0828 37.3385L48.7927 37.2728L49.0538 37.2071C49.3246 37.1321 49.518 37.1884 49.518 37.3479C49.518 37.4417 49.5084 37.4417 49.0828 37.3385Z" fill="white"/>
<path d="M48.7443 36.8882C48.7443 36.5035 48.9668 36.4472 49.1699 36.7849C49.3053 37.0101 49.315 37.057 49.1892 37.057C49.1118 37.057 48.9861 37.0852 48.8991 37.1133C48.783 37.1602 48.7443 37.1039 48.7443 36.8882Z" fill="white"/>
<path d="M50.4272 37.0195C49.992 36.8319 49.7115 36.3346 49.7115 35.7435C49.7115 35.3213 49.7502 35.2181 50.0113 34.9836C50.1757 34.8335 50.3401 34.7115 50.3885 34.7115C50.6013 34.7115 51.3847 35.4339 51.6458 35.8843L51.9456 36.4003L51.6265 36.7287C51.2589 37.1039 50.8527 37.2071 50.4272 37.0195Z" fill="white"/>
<path d="M48.4058 36.7756C48.3767 36.7286 48.3961 36.6817 48.4446 36.6817C48.5028 36.6817 48.5513 36.7286 48.5513 36.7756C48.5513 36.8318 48.5319 36.8694 48.5125 36.8694C48.4834 36.8694 48.4349 36.8318 48.4058 36.7756Z" fill="white"/>
<path d="M47.1389 36.6254C47.1679 36.541 47.1969 36.4566 47.1969 36.4378C47.1969 36.419 47.2839 36.4003 47.3903 36.4003C47.6321 36.4003 47.6418 36.5504 47.4 36.6817C47.1389 36.8131 47.0712 36.8037 47.1389 36.6254Z" fill="white"/>
<path d="M47.9029 36.5129C47.6804 36.4847 47.6127 36.3628 47.7578 36.2783C47.7965 36.2502 47.9706 36.2033 48.1447 36.1658C48.4058 36.1095 48.4542 36.1282 48.4542 36.2877C48.4542 36.4847 48.2511 36.5692 47.9029 36.5129Z" fill="white"/>
<path d="M48.6476 36.1939C48.6476 36.0813 48.6573 36.0156 48.6767 36.0344C48.6864 36.0532 48.764 36.147 48.8319 36.2408C48.9483 36.3722 48.9386 36.4003 48.8028 36.4003C48.7058 36.4003 48.6476 36.3252 48.6476 36.1939Z" fill="white"/>
<path d="M47.2936 36.1282C47.2936 36.0719 47.3421 36.0062 47.3906 35.9781C47.4488 35.9499 47.4876 35.9875 47.4876 36.0625C47.4876 36.147 47.4488 36.2126 47.3906 36.2126C47.3421 36.2126 47.2936 36.1751 47.2936 36.1282Z" fill="white"/>
<path d="M47.6514 35.9875C47.5741 35.7998 48.2608 35.5934 48.3768 35.7717C48.4639 35.9218 48.3768 35.9875 48.0093 36.0625C47.7869 36.1094 47.6901 36.0907 47.6514 35.9875Z" fill="white"/>
<path d="M48.5605 35.6873C48.5605 35.5841 48.5894 35.5559 48.6182 35.631C48.6471 35.6966 48.6375 35.7811 48.6086 35.8092C48.5798 35.8468 48.5509 35.7905 48.5605 35.6873Z" fill="white"/>
<path d="M47.7385 35.5371C47.8546 35.3307 48.1931 34.993 48.2801 34.993C48.3768 34.993 48.3865 35.4339 48.2898 35.4902C48.2414 35.509 48.0867 35.5559 47.9416 35.5934C47.7288 35.6403 47.6805 35.631 47.7385 35.5371Z" fill="white"/>
<path d="M48.5122 35.3213C48.4058 35.0399 48.4542 34.9179 48.6863 34.8804C48.9281 34.8335 48.9281 34.8335 48.7734 35.1243C48.5799 35.4996 48.5896 35.4996 48.5122 35.3213Z" fill="white"/>
<path d="M48.4542 34.7584C48.4542 34.7397 48.6476 34.6083 48.8894 34.477C49.1795 34.3081 49.3826 34.2518 49.5277 34.2893C49.7018 34.3456 49.6534 34.3832 49.2279 34.5802C48.754 34.7866 48.4542 34.8616 48.4542 34.7584Z" fill="white"/>
<path d="M53.8219 26.446C53.5608 26.0801 53.0095 25.489 52.613 25.1325C52.2164 24.776 51.9553 24.4851 52.0327 24.4851C52.2455 24.4851 53.8703 24.9167 54.2765 25.0856C54.615 25.2263 54.6247 25.2451 54.5376 25.5359C54.4893 25.7048 54.4506 26.127 54.4506 26.4741C54.4506 26.8306 54.4216 27.1121 54.3829 27.1121C54.3345 27.1121 54.0927 26.8119 53.8219 26.446Z" fill="white"/>
<path d="M34.1402 54.8641C33.7436 54.6671 33.6566 54.5545 33.1537 53.5881C32.4283 52.2184 32.4089 51.8994 33.0956 52.6781C33.3664 52.9877 33.9951 53.6257 34.4883 54.0948C35.3298 54.8829 35.3685 54.9392 35.088 54.9016C34.8849 54.8735 34.8075 54.8922 34.8559 54.9673C34.9719 55.1362 34.6044 55.0893 34.1402 54.8641Z" fill="white"/>
<path fill-rule="evenodd" clip-rule="evenodd" d="M50.3487 71.9573C50.2685 71.7723 50.358 71.5593 50.5486 71.4814L50.757 71.3957C52.7829 70.5548 53.9457 70.0497 54.7359 69.2476C55.526 68.4455 55.6205 67.2674 55.769 66.5505C55.8097 66.3538 56.2689 66.6993 56.4717 66.7388C56.6745 66.7783 56.8059 66.9699 56.7652 67.1666C56.5867 68.0285 56.1061 68.8502 55.3323 69.6302C54.5612 70.4076 53.0681 71.2409 50.8393 72.1512C50.6486 72.229 50.429 72.1422 50.3487 71.9573Z" fill="black"/>
<path fill-rule="evenodd" clip-rule="evenodd" d="M59.5102 34.523C59.688 34.4204 59.9178 34.477 60.0236 34.6494C61.0831 36.3758 61.6506 38.3494 61.6506 40.4027C61.6506 46.6232 56.4522 51.666 50.0396 51.666C48.3357 51.666 46.6829 51.3095 45.1695 50.6303C44.9818 50.546 44.2726 49.8751 44.9869 50.1479C45.7012 50.4208 48.4647 51.0333 50.0595 51.0333C56.0584 51.0333 60.3022 46.2219 60.3022 40.4027C60.3022 38.4811 59.5102 36.7756 59.3799 35.0211C59.3648 34.8177 59.3325 34.6257 59.5102 34.523Z" fill="black"/>
<path fill-rule="evenodd" clip-rule="evenodd" d="M22.4158 62.0218C22.5482 61.8676 22.7844 61.5561 22.9433 61.6845C23.5953 62.2113 24.2912 62.8218 25.0354 62.9396C25.81 63.0622 26.7288 63.0622 27.7907 62.9375C27.9961 62.9133 28.1827 63.0553 28.2076 63.2545C28.2324 63.4537 28.0861 63.6348 27.8808 63.6589C26.753 63.7913 25.7648 63.7913 24.9148 63.6568C24.0346 63.5174 23.2161 63.1413 22.4639 62.5335C22.3049 62.4051 22.2834 62.176 22.4158 62.0218Z" fill="black"/>
<path d="M30.3684 49.3099C29.8848 48.9346 28.8499 47.8276 28.0665 46.8518C27.6603 46.3358 27.2057 45.285 26.9349 44.2249C26.8092 43.7464 26.6835 43.3148 26.6545 43.2585C26.6158 43.2116 26.461 42.5455 26.3063 41.7762C26.0742 40.6878 26.1233 40.3372 25.9194 39.0355C25.8331 38.4843 25.755 38.0457 25.755 38.0457L26.0065 37.7325C26.1515 37.5449 26.3351 37.2344 26.403 37.057C26.7125 36.2492 28.9853 33.717 29.053 33.7827C29.0724 33.8015 28.995 34.2424 28.8596 34.7584C28.7339 35.2744 28.5791 36.0531 28.5114 36.4941C28.4147 37.2259 28.376 37.3103 28.0762 37.5543C27.699 37.8639 26.9833 38.8584 26.9833 39.0648C26.9833 39.3462 27.4185 39.1586 27.8731 38.6989L28.3373 38.2298V38.7458C28.3373 39.0835 28.2696 39.3931 28.1439 39.6371C27.9021 40.0968 27.9021 40.5846 28.1342 40.9599C28.2503 41.1476 28.3567 41.5979 28.4244 42.1327C28.7242 44.5532 29.3625 46.6548 30.4554 48.7658C30.7262 49.2912 30.939 49.7227 30.9293 49.7227C30.91 49.7227 30.6585 49.5351 30.3684 49.3099Z" fill="white"/>
<path fill-rule="evenodd" clip-rule="evenodd" d="M70.6119 55.0986L71.3082 55.3989C71.4526 55.4635 73.0455 56.206 74.9589 57.0978C78.0438 58.5357 81.9618 60.3619 81.9857 60.3619C82.0244 60.3619 82.2059 59.9549 82.2468 59.48C82.3435 58.4574 82.7014 57.0689 83.1173 56.1025C83.3107 55.6709 83.4654 55.1316 83.4654 55.0847C83.4654 55.0632 83.3082 55.0017 83.0508 54.901C82.7444 54.7811 82.296 54.6057 81.8019 54.3762C79.3647 53.241 74.5966 50.9236 74.0066 50.5765C73.4263 50.2481 73.3103 50.22 73.3103 50.4358C73.3103 50.7172 72.7203 52.0213 72.2657 52.725C72.0239 53.1097 71.55 53.8039 71.2115 54.2636L70.6119 55.0986ZM81.8213 58.6732C82.0986 58.8291 81.6182 59.0578 81.5021 59.0954C80.8187 59.1517 80.0142 59.027 79.355 58.6544C79.0103 58.4173 76.2965 56.9547 74.4962 55.9845C73.6732 55.541 73.0412 55.2004 72.9137 55.1268C72.5075 54.8922 72.1207 54.6389 72.053 54.5639C71.8498 54.3106 72.0433 54.198 72.6139 54.2449C72.957 54.2731 81.2222 58.3364 81.8213 58.6732Z" fill="white"/>
<path d="M63.6677 55.943C63.4162 55.8586 63.1454 55.6709 62.9713 55.4552L62.6812 55.108L63.7063 54.1229C65.2828 52.6218 66.4434 50.9812 67.4879 49.1518C67.8361 48.5419 68.871 46.0825 68.9967 45.8104C69.1901 45.4164 69.3352 45.2663 69.7511 45.0411C70.2443 44.7597 70.8053 44.6658 71.0471 44.8253C71.5113 45.1256 71.5113 46.0731 71.0471 47.7056C70.5345 49.4976 69.8478 50.7829 68.4261 52.6312C68.2036 52.9126 67.7877 53.4662 67.4879 53.8508C66.6852 54.8828 66.1629 55.3801 65.4569 55.7648C64.7605 56.14 64.3543 56.1869 63.6677 55.943Z" fill="white"/>
<path d="M67.3138 55.7272L67.1107 55.5302C67.1107 55.5302 70.4817 51.3755 71.0857 49.8447C71.5467 48.6764 71.818 48.3452 72.184 48.3452C72.3887 48.3452 72.5558 48.3905 72.6332 48.5031C72.7686 48.7001 72.8991 48.944 72.725 49.779C72.4348 51.13 71.9899 52.0213 70.6553 53.9446C70.3458 54.3856 69.9492 54.8735 69.7751 55.0423C69.3689 55.4082 68.4551 55.7835 67.9231 55.8679C67.5846 55.9149 67.4879 55.8961 67.3138 55.7272Z" fill="white"/>
<path fill-rule="evenodd" clip-rule="evenodd" d="M72.9762 51.3828C73.1712 50.95 73.3102 50.5724 73.3102 50.4358C73.3102 50.22 73.4263 50.2481 74.0066 50.5765C74.5965 50.9236 79.3646 53.241 81.8019 54.3762C82.711 54.7984 83.4654 55.0377 83.4654 55.0847C83.4654 55.1316 72.7694 51.8418 72.9762 51.3828Z" fill="white"/>
<path fill-rule="evenodd" clip-rule="evenodd" d="M39.8852 51.9181C38.6569 51.1394 36.7999 49.3099 35.9005 48.0058C34.6141 46.1294 33.763 44.1217 33.3472 41.9638C33.0473 40.397 33.057 37.9859 33.3568 36.5879C33.6663 35.1619 34.0629 34.0736 34.7689 32.6944C35.591 31.0995 36.4614 29.9267 37.7671 28.6601C39.0475 27.4181 33.3568 32.5545 34.7689 41.7445C35.9005 49.4458 40.7636 52.4796 39.8852 51.9181Z" fill="#996799"/>
</svg>
