<svg width="110" height="109" viewBox="0 0 110 109" fill="none" xmlns="http://www.w3.org/2000/svg">
<path fill-rule="evenodd" clip-rule="evenodd" d="M61.4854 90.366C72.2463 90.366 81.6896 82.5359 76.3862 71.9007C71.0829 61.2654 90.7882 61.6089 96.5765 54.2585C103.636 45.2944 101.591 7.2432 56.2743 30.4411C49.015 34.1571 30.3716 26.6182 24.1875 30.3588C16.9082 34.762 6.66663 43.7783 16.9082 53.0141C21.953 57.5635 3.86622 69.3717 11.7879 79.9488C19.5174 90.2694 24.9357 80.4309 36.7038 82.5359C48.4719 84.6409 53.4935 90.366 61.4854 90.366Z" fill="#517EA6"/>
<path d="M48.9955 71.8637C48.9955 71.8637 51.4733 70.7236 52.3983 69.9304C53.3233 69.1372 54.4732 67.1666 54.4732 67.1666C54.4732 67.1666 67.1052 76.0905 75.3417 74.8176C77.2394 74.5243 80.9372 73.2903 81.173 71.1162C81.8169 65.1795 72.908 63.6624 74.854 60.6519C76.0419 58.8142 79.732 61.5492 79.732 61.5492L95.0375 68.9135C95.0375 68.9135 89.7498 81.6636 76.918 82.1745C61.1333 82.8031 48.9955 71.8637 48.9955 71.8637Z" fill="white"/>
<path fill-rule="evenodd" clip-rule="evenodd" d="M36.8608 21.9315C36.7171 21.8764 35.9457 20.9523 34.9663 20.7842C34.5212 20.7077 34.9251 21.2621 34.4353 21.2671C32.9765 21.2819 30.6058 21.0138 30.1666 21.2671C29.8402 21.4547 30.559 22.1101 30.1666 22.1402C26.464 22.4241 20.8154 26.0405 19.5898 27.795C19.1998 28.3533 22.3542 27.406 21.8516 27.682C21.2875 27.9919 20.6619 30.0205 20.2879 31.5873C20.0289 32.6662 19.8659 34.0548 19.8083 35.5653C19.7604 36.8694 19.7795 37.0852 19.9714 37.7982C20.1919 38.5957 20.3646 38.8302 20.6619 38.7176C20.7674 38.6801 20.8154 38.5394 20.8154 38.2767C20.8154 38.0703 20.9305 37.4511 21.0743 36.8975L21.3237 35.903L21.4292 36.3158C21.5635 36.7943 22.3499 38.2767 23.0597 39.3556C23.0979 39.4129 23.2626 39.34 23.4111 38.9889C23.5465 38.6689 23.4915 38.1577 23.7214 37.6099C24.2451 36.3619 25.2734 34.7394 26.464 33.4406C28.2236 31.5211 28.8074 29.2996 30.4569 27.5164C33.5351 24.1885 37.3986 22.1381 36.8608 21.9315Z" fill="white"/>
<path fill-rule="evenodd" clip-rule="evenodd" d="M21.8953 28.1348C21.4015 28.5233 20.6685 31.6738 20.6559 31.7265C20.397 32.8054 20.1474 36.5522 20.4025 37.2615C20.6577 37.9709 21.3722 35.4138 21.3722 35.4138C21.3722 35.4138 22.4521 38.1569 23.4063 38.909C23.447 38.9411 22.2721 35.5152 21.8953 33.5152C21.3979 30.8752 22.1763 27.9138 21.8953 28.1348Z" fill="#E7EAEE"/>
<path fill-rule="evenodd" clip-rule="evenodd" d="M40.3003 83.3125C41.2211 83.1155 42.7746 82.4294 43.3695 82.1948C43.9643 81.9602 45.7768 79.4565 46.429 76.6325C46.8989 74.5497 47.1387 71.585 46.8702 71.0878C46.8305 71.0172 46.6854 69.6691 47.0716 70.1093C47.9301 71.0878 48.9491 72.6239 52.1643 69.8713C53.0401 69.1216 54.2008 68.154 53.8951 67.2986C53.0401 64.9052 49.3333 60.086 48.7683 59.7209C48.0926 59.2844 44.6776 59.6553 39.5955 58.188C33.8319 56.5239 31.432 51.6238 29.1765 52.2616C27.3525 52.7775 22.9823 55.9476 21.8855 57.955C16.7076 67.4324 22.9823 74.0733 24.4113 75.9807L25.7987 76.5669L25.8467 77.7771L25.9138 78.5371C26.0385 79.9913 26.0865 80.1227 26.7578 80.6105C28.4363 81.8583 31.7452 83.0217 34.7375 83.4345C36.1282 83.6221 39.1494 83.5565 40.3003 83.3125Z" fill="white"/>
<path fill-rule="evenodd" clip-rule="evenodd" d="M26.3444 77.3341L26.4116 78.0941C26.5362 79.5483 26.5842 79.6796 27.2556 80.1675C28.2457 80.9036 29.8033 81.6104 31.5286 82.1509C32.7279 82.5267 34.0082 82.8222 35.2353 82.9915C36.626 83.1791 39.6471 83.1134 40.7981 82.8695C41.3669 82.7489 36.6875 79.1528 33.9309 80.1675C31.8139 80.9467 26.8242 75.0027 28.8529 73.4498C31.1287 71.7078 26.9585 64.837 26.8242 63.3453C26.6899 61.8536 26.1611 61.4972 26.1457 61.5495C26.1303 61.6019 26.1303 61.7803 26.1718 62.2103C26.3507 64.0639 26.3444 77.3341 26.3444 77.3341Z" fill="#E7EAEE"/>
<path fill-rule="evenodd" clip-rule="evenodd" d="M25.8447 62.9194C26.0461 62.8811 26.2411 63.0097 26.2803 63.2067C27.0041 66.8445 30.066 69.3073 35.541 70.5951C41.0486 71.8906 44.8001 71.8208 46.7768 70.4379C46.9436 70.3212 46.8192 71.3209 46.697 71.3975C45.4078 72.2063 41.0245 73.413 35.7936 72.3223C29.1055 70.9278 25.9652 65.4265 25.5511 63.3455C25.5119 63.1485 25.6434 62.9578 25.8447 62.9194Z" fill="#FFB61D"/>
<path fill-rule="evenodd" clip-rule="evenodd" d="M23.0557 56.356C23.2337 56.2563 29.8766 63.7037 38.9928 65.3894C48.1091 67.0752 50.3163 66.0031 50.6711 63.7037C50.7017 63.5053 50.891 63.3687 51.0938 63.3987C51.2966 63.4286 51.4363 63.6137 51.4056 63.8122C50.956 66.7263 46.7377 67.4194 38.8679 66.1058C31.0969 64.8086 25.7691 61.7266 22.9178 56.8518C22.8159 56.6776 22.8776 56.4556 23.0557 56.356Z" fill="#FFB61D"/>
<path fill-rule="evenodd" clip-rule="evenodd" d="M61.3181 55.943C61.0688 55.8586 60.8002 55.6709 60.6276 55.4551L60.3398 55.108L61.3565 54.1229C62.9198 52.6218 64.1187 51.0831 65.1545 49.2536C65.4998 48.6438 66.3726 46.6079 66.3726 46.4109C66.3726 46.3452 66.4781 46.0825 66.6028 45.8104C66.7946 45.4164 66.9384 45.2663 67.3509 45.0411C67.84 44.7596 68.3963 44.6658 68.6361 44.8253C69.0964 45.1255 69.0964 46.0731 68.6361 47.7056C68.1277 49.4976 67.4468 50.7829 66.0369 52.6311C65.8163 52.9126 65.4039 53.4661 65.1066 53.8508C64.3105 54.8828 63.7926 55.3801 63.0925 55.7647C62.4019 56.14 61.9991 56.1869 61.3181 55.943ZM68.2045 55.0986L68.895 55.3988C69.0382 55.4635 70.6179 56.206 72.5153 57.0978C75.5745 58.5357 79.4598 60.3619 79.4835 60.3619C79.5219 60.3619 79.7019 59.9548 79.7425 59.48C79.8384 58.4574 80.1933 57.0688 80.6057 56.1025C80.7975 55.6709 80.9509 55.1315 80.9509 55.0846C80.9509 55.0632 80.795 55.0017 80.5398 54.901C80.2359 54.7811 79.7912 54.6056 79.3013 54.3762C76.8844 53.241 72.156 50.9236 71.5709 50.5765C70.9955 50.2481 70.8804 50.22 70.8804 50.4358C70.8804 50.7172 70.2953 52.0213 69.8446 52.725C69.6048 53.1096 69.1348 53.8039 68.7991 54.2636L68.2045 55.0986ZM79.3205 58.6732C79.5955 58.8291 79.1191 59.0578 79.004 59.0954C78.3263 59.1517 77.5285 59.027 76.8748 58.6544C76.5329 58.4173 73.8417 56.9547 72.0564 55.9845C71.2403 55.541 70.6135 55.2004 70.4872 55.1268C70.0843 54.8922 69.7007 54.6389 69.6336 54.5638C69.4321 54.3105 69.624 54.1979 70.1898 54.2449C70.53 54.2731 78.7264 58.3364 79.3205 58.6732ZM40.333 83.2353C41.0729 83.077 42.2213 82.6028 42.9526 82.3009L42.953 82.3008L42.9532 82.3007L42.9545 82.3002C43.1325 82.2267 43.2857 82.1634 43.4021 82.1175C43.997 81.8829 45.8095 79.3793 46.4617 76.5553C46.9316 74.4725 47.1714 71.5078 46.9028 71.0105C46.7409 70.7225 47.7028 71.6886 48.4192 72.408L48.4192 72.4081L48.4195 72.4084L48.4204 72.4093C48.6371 72.6269 48.8313 72.8219 48.9649 72.9526C53.1466 77.015 59.3711 80.2799 65.8355 81.8092C69.0581 82.5785 71.3503 82.8506 74.429 82.8506C79.5986 82.8506 83.6748 81.8561 87.3769 79.6701C87.5526 79.5663 87.7173 79.4709 87.8743 79.38L87.8746 79.3799C89.1651 78.6325 89.9339 78.1872 92.0381 75.8704C94.3984 73.2716 96.4979 67.2389 97.1981 65.1561C97.505 64.2179 98.2531 60.4863 98.2531 59.5551C98.2531 58.4526 97.8599 57.932 97.3228 57.3972C96.3733 56.4872 95.0881 56.1588 94.0235 56.5528L93.5247 56.7405L93.3713 56.2432C93.1507 55.4927 92.6903 54.8922 91.9806 54.4419C90.9256 53.757 90.7721 53.7101 89.8226 53.7101C89.0841 53.7101 88.8827 53.7476 88.4127 53.9634L87.866 54.2073L87.7509 53.8696C87.5303 53.1753 86.7904 52.2075 86.2164 51.9275C85.7073 51.6792 84.826 51.6564 84.2119 51.768C82.8691 52.0119 81.91 52.6218 81.5168 53.4755C81.4017 53.7382 81.2578 53.9446 81.2003 53.9446C81.1523 53.9446 79.2629 53.4284 77.009 52.4527C76.6288 52.2876 76.2717 52.1327 75.9363 51.9873C71.8889 50.2325 71.0116 49.8521 71.0914 49.3756C71.1585 48.9722 71.1393 48.747 71.0242 48.3999C70.8228 47.8182 70.5926 47.6587 69.9404 47.6587C69.4225 47.6587 69.4225 47.6587 69.4801 47.4054C69.787 45.9699 69.7774 45.1443 69.4513 44.6189C69.2307 44.2718 68.9717 44.131 68.3771 44.0466C68.0318 43.9997 67.8688 44.0278 67.4851 44.2342C67.2262 44.3656 67.0056 44.4594 66.9864 44.4407C66.9672 44.4219 67.0344 43.9059 67.1399 43.296C67.9263 38.7833 67.3188 34.8951 65.3142 30.767C65.295 30.7276 65.2728 30.6809 65.2474 30.6275L65.2473 30.6274C64.6379 29.3476 62.1876 24.2015 55.1799 21.6048C54.8627 21.4873 54.5625 21.3737 54.2741 21.2644C51.887 20.3606 50.3001 19.7597 46.4712 19.766C42.1797 19.773 40.7262 20.3664 37.8969 21.633C37.5036 21.8112 37.1584 21.9144 37.1296 21.8769C37.1008 21.83 36.9186 21.7174 36.7364 21.6236C36.5541 21.5298 36.1609 21.2952 35.8732 21.1076C35.0484 20.5634 34.54 20.3383 34.2811 20.3946C33.9838 20.4696 33.9838 20.7135 34.2811 20.8261C34.4058 20.873 34.5496 21.0325 34.6072 21.192C34.7318 21.5298 34.8757 21.5673 34.962 21.2858C35.0004 21.1826 35.0579 21.1076 35.0867 21.1264C35.0976 21.1317 35.1338 21.1483 35.1891 21.1736L35.1897 21.1738L35.1899 21.1739C35.3301 21.2381 35.5918 21.358 35.8732 21.4923C36.2664 21.6799 36.698 21.8769 36.8131 21.9238C37.0241 21.9989 36.957 22.0552 36.0458 22.5806C32.4876 24.6258 29.5911 27.8063 27.9702 31.4278C27.7208 31.972 27.5002 32.3097 27.27 32.4974C26.685 32.9758 25.5341 34.3362 25.2655 34.871C25.1217 35.1618 24.8147 35.6122 24.575 35.8749C24.3448 36.1376 24.0954 36.4753 24.0091 36.6161C23.9324 36.7662 23.8556 36.8694 23.8269 36.8506C23.8077 36.8225 23.8365 36.3627 23.9036 35.828C24.0475 34.5802 24.0475 34.2518 23.9324 34.2236C23.7597 34.1767 23.5104 34.8335 23.4049 35.6497C23.3281 36.147 23.309 36.8975 23.3569 37.6668L23.4145 38.8865L22.7335 37.8076C22.4989 37.4462 22.268 37.0848 22.1042 36.8285L22.1041 36.8284L22.104 36.8282C21.9999 36.6655 21.923 36.5451 21.8895 36.4941C21.6401 36.1376 21.4963 35.6028 21.6018 35.4245C21.6593 35.3213 21.6497 35.2744 21.5538 35.2744C21.3524 35.2744 20.9592 35.903 20.7002 36.6254C20.5755 36.9632 20.4508 37.2446 20.4125 37.2446C20.2686 37.2446 20.3357 33.8859 20.4892 32.807C20.8057 30.6772 21.6401 28.0503 22.0142 28.0503C22.0909 28.0503 22.158 28.0127 22.158 27.9565C22.158 27.7876 21.9087 27.8533 21.7073 28.069C21.2565 28.5475 20.6618 30.0205 20.2878 31.5873C20.0288 32.6662 19.8658 34.0548 19.8082 35.5653C19.7603 36.8694 19.7795 37.0852 19.9713 37.7982C20.1919 38.5957 20.3645 38.8302 20.6618 38.7176C20.7673 38.6801 20.8153 38.5394 20.8153 38.2767C20.8153 38.0703 20.9304 37.4511 21.0743 36.8975L21.3236 35.903L21.4291 36.3158C21.5634 36.7943 22.3499 38.2767 23.0596 39.3556C23.5487 40.0874 23.5583 40.1343 23.7214 41.2789C23.8077 41.9263 24.0762 43.5009 24.6997 45.923C25.2505 48.0631 28.3471 50.1861 29.1203 50.7162L29.1203 50.7163L29.1204 50.7163C29.2222 50.7861 29.2837 50.8283 29.2937 50.8392C29.3897 50.9424 29.5239 50.9987 29.6007 50.9705C29.687 50.9424 29.7349 50.9799 29.7349 51.0831C29.7349 51.1769 29.8021 51.2989 29.8788 51.3552C29.9747 51.4209 30.0418 51.6742 30.061 52.1151C30.109 52.997 30.7804 54.6858 31.2983 55.2393C31.634 55.5959 32.3341 55.746 33.111 55.6146C33.6193 55.5396 33.7632 55.4833 33.7152 55.3707C33.6864 55.2956 33.8687 55.3895 34.118 55.5771C37.0337 57.7537 39.9877 59.0578 43.3062 59.6207C44.5914 59.8365 46.7206 59.9585 47.8811 59.8741C48.6276 59.8263 48.8311 59.8133 48.8681 59.8855C48.882 59.9126 48.8725 59.9517 48.8594 60.0054C48.7923 60.2681 48.8786 60.4276 50.2885 62.7637C51.4106 64.612 51.5065 64.7339 52.7533 65.9817C55.4005 68.6556 58.2874 70.729 61.5579 72.3334C64.6366 73.8345 69.552 75.0823 74.0454 75.4763C78.5388 75.8704 81.7661 71.8361 81.7566 70.8041C81.7374 69.3874 81.536 68.4586 81.0468 67.5579C80.5673 66.6854 80.2508 66.3852 78.8121 65.447C77.2104 64.4056 76.2225 63.5518 75.5704 62.6418C75.1579 62.0695 75.0045 61.4221 75.0045 61.075C75.0045 60.8498 75.3018 60.3432 75.743 60.24C76.1458 60.1368 76.2225 60.1461 76.6733 60.3619C76.9419 60.4839 77.642 60.8029 78.2175 61.075C78.8025 61.3377 79.3684 61.6003 79.4835 61.6566C79.8228 61.7489 79.9662 62.3985 80.044 62.7507C80.0614 62.8293 80.0755 62.8932 80.0877 62.9326C80.222 63.4205 80.8574 64.0504 81.2674 64.2648C81.9874 64.6415 83.7613 64.6918 84.2504 64.1758C84.3751 64.0444 84.7885 63.8829 84.8736 63.9319C84.9588 63.9808 85.2669 64.3868 85.2669 64.7152C85.2765 65.2781 85.5738 65.7941 86.2068 66.3101C87.4057 67.2858 88.336 67.5204 89.2759 67.0888C89.765 66.8637 90.1659 66.7757 90.1659 66.7757C90.1659 66.7757 90.5658 67.2747 90.5899 67.4453C90.7782 68.7783 92.7957 69.3372 93.3328 69.3934C93.456 69.4055 93.6954 69.354 93.9388 69.3017L93.9389 69.3017C94.2642 69.2317 94.5962 69.1603 94.6661 69.2373C94.8031 69.3885 92.3738 73.3185 92.0381 73.8157C88.8443 78.5067 82.6293 81.3776 75.0237 81.6779C70.0843 81.8749 64.0132 80.5239 58.7477 78.0658C55.3813 76.4802 52.3985 74.5381 49.2047 71.8174C48.6484 71.3483 48.0058 70.8135 47.7756 70.6258C47.5454 70.4476 46.9987 69.8378 46.5767 69.2748C45.867 68.3366 45.4642 67.9989 45.4642 68.3179C45.4642 68.4586 45.9246 69.3217 46.4521 70.1755C46.6631 70.5133 46.7973 70.7478 46.7494 70.7103C46.7014 70.6728 46.548 71.3483 46.4041 72.2114C45.9341 74.9791 45.1573 77.7093 44.3708 79.4074C43.9392 80.3268 43.1117 81.0135 42.8623 81.2011C41.9416 81.886 40.5632 82.1939 38.6546 82.3815C36.2376 82.6161 32.6794 82.0907 29.9651 81.0962C29.2458 80.8335 27.3947 80.0735 27.27 79.9891C27.2626 79.9818 27.2201 79.7118 27.1608 79.3352L27.107 78.9946C26.7617 76.6772 26.2822 67.7549 26.2822 63.6269C26.2822 61.9193 26.263 61.5441 26.1479 61.5441C25.9081 61.5441 25.8122 61.7692 25.7067 62.5761C25.4669 64.415 25.5149 74.0127 25.7738 76.0299L25.8314 76.4896L25.5053 76.3113C25.0066 76.0299 23.1075 74.1441 22.4458 73.2716C21.8855 72.5256 21.5525 71.5703 21.3034 70.8556L21.3034 70.8555L21.3033 70.8553L21.3031 70.8547C21.2453 70.6888 21.192 70.5359 21.1414 70.4016C19.7507 66.63 20.2398 62.3978 22.158 58.5887C23.7885 55.3425 25.793 53.5412 28.7279 52.6687C29.2074 52.5279 29.6294 52.3778 29.6774 52.3403C29.8596 52.1714 28.6895 52.2559 28.0469 52.4529C25.9561 53.0815 23.7693 54.7984 22.2827 56.9938C20.1919 60.0711 19.252 64.612 19.9137 68.4867C20.0672 69.4062 20.6906 71.3952 20.8633 71.5359C20.8785 71.5508 20.9573 71.7124 21.0763 71.9568L21.0764 71.9568L21.0765 71.9571L21.0765 71.9572L21.0766 71.9572L21.0767 71.9575L21.0767 71.9576C21.4066 72.6345 22.0455 73.9456 22.5033 74.5381C23.0596 75.2793 24.738 76.893 25.4382 77.3903L25.8793 77.6999L25.9465 78.4598C26.0712 79.914 26.1191 80.0454 26.7905 80.5332C28.4689 81.7811 31.7778 82.9444 34.7702 83.3572C36.1609 83.5449 39.1821 83.4792 40.333 83.2353ZM72.7506 74.4255C67.1782 73.9471 60.4453 71.3481 55.5731 67.3326C53.5206 65.6344 50.8543 62.3321 49.7993 60.5026C49.5787 60.1274 49.4157 59.9491 49.2238 59.9022C49.0224 59.8459 49.1951 59.7896 50.0199 59.6583C53.5014 59.0766 56.8871 57.6599 59.6205 55.6428L60.0233 55.3519L60.1384 55.624C60.3974 56.2338 61.3948 56.853 62.1333 56.853C62.4307 56.853 63.4281 56.4121 64.0324 56.0087L64.4448 55.7366L64.7805 56.0649C65.0874 56.3652 65.1449 56.3839 65.7204 56.3839C66.3822 56.3839 67.1782 56.0931 67.6194 55.6803L67.8592 55.4645L68.5401 55.9055C68.9046 56.1588 69.9212 56.7123 70.794 57.1533C72.0984 57.81 73.4795 58.5699 74.7935 59.358L75.0045 59.4894L74.8031 59.7521C74.5921 60.0335 74.199 60.5683 74.199 61.3846C74.199 62.304 75.1764 63.9559 77.0474 65.0904C78.5172 65.9817 81.0468 67.7349 80.9509 70.2975C80.9393 70.607 80.5864 71.3764 80.1165 72.0707C79.8096 72.5116 78.956 73.1684 78.1791 73.553C76.8555 74.2004 74.5249 74.5757 72.7506 74.4255ZM21.6113 32.3097C21.8703 32.366 22.0429 32.4504 22.0046 32.488C21.8799 32.6099 21.2181 32.5536 21.0646 32.4035C20.8249 32.1784 20.8824 32.0189 21.2181 31.9532C21.3907 31.925 21.6497 31.7843 21.7936 31.6436C21.9374 31.5028 22.0621 31.4372 22.0621 31.4841C22.0621 31.6061 21.5826 32.0376 21.3428 32.1314C21.1893 32.1971 21.2373 32.2253 21.6113 32.3097ZM25.4286 32.4598C25.7067 32.3097 25.6492 32.2065 25.3231 32.2534C24.997 32.3003 24.9778 32.2628 25.1888 31.9438C25.2751 31.8218 25.3231 31.6436 25.3039 31.5498C25.2751 31.4278 25.208 31.4841 25.0545 31.7843C24.9394 32.0001 24.7764 32.1784 24.6997 32.1784C24.4599 32.1784 24.4407 32.366 24.6709 32.4504C24.9682 32.5724 25.1984 32.5724 25.4286 32.4598ZM22.1101 27.3372C21.8799 27.3748 21.1606 27.6562 20.5276 27.9658C19.885 28.2661 19.3383 28.5194 19.2999 28.51C18.3216 28.4068 19.6836 26.8118 22.158 25.1794C24.527 23.6126 26.1287 22.787 27.6153 22.3648C28.5456 22.1021 29.5911 22.0646 29.8884 22.2803C30.0514 22.4023 29.9939 22.4117 29.2842 22.4211C27.7496 22.4211 25.9753 23.1904 23.0884 25.0762C21.5922 26.0519 19.8562 27.4498 19.8562 27.675C19.8562 27.7219 20.1343 27.6281 20.4796 27.478C21.2181 27.1496 21.9758 26.9807 22.3115 27.0558C22.6664 27.1496 22.5896 27.2716 22.1101 27.3372ZM25.8218 28.1441C26.7234 27.9658 26.7617 27.9564 26.7617 27.8626C26.7617 27.8157 26.4165 27.7688 25.9849 27.75L25.208 27.7219L25.9273 26.9244C26.3205 26.4835 26.7809 26.0425 26.944 25.9393C27.2988 25.7141 27.318 25.5547 27.0303 25.4608L26.8097 25.3952L27.0495 25.3107C27.1837 25.2638 27.4331 25.245 27.6057 25.2732C27.8647 25.3107 27.9222 25.292 27.8935 25.1606C27.8647 25.0293 27.7592 25.0011 27.2892 25.0105C25.9177 25.0293 25.3327 25.3858 26.4069 25.5547C26.7042 25.6016 26.9536 25.6766 26.9536 25.7235C26.9536 25.7611 26.9056 25.7986 26.8481 25.7986C26.6658 25.7986 25.1217 27.3279 24.9298 27.7031C24.6325 28.2567 24.7956 28.3411 25.8218 28.1441ZM32.1519 24.5039C31.8737 24.5226 31.8066 24.5696 31.8258 24.7009L31.8287 24.72C31.8395 24.789 31.8456 24.8288 31.8301 24.8412C31.8088 24.858 31.7472 24.8238 31.6016 24.743L31.5764 24.729C31.3942 24.6352 31.375 24.5883 31.4805 24.5133C31.5476 24.457 31.7299 24.3725 31.8737 24.3444L32.1423 24.2787L31.9409 24.0723C31.8354 23.9503 31.7778 23.8378 31.8066 23.8002C31.8833 23.7252 32.8233 23.8284 32.9575 23.9316C33.0151 23.9785 33.1014 23.9691 33.1589 23.9128C33.2932 23.7815 33.4754 23.8847 33.4754 24.0911C33.4754 24.2037 33.4467 24.213 33.3603 24.1286C33.2836 24.0535 33.2165 24.0535 33.1302 24.1192C33.0534 24.1849 32.9959 24.1849 32.9479 24.1098C32.9192 24.0629 32.7369 24.016 32.5451 24.016C32.3675 24.016 32.2838 24.016 32.2672 24.0494C32.2524 24.0791 32.2906 24.1352 32.3629 24.2412C32.5159 24.475 32.5068 24.4757 32.1551 24.5036L32.1519 24.5039ZM30.694 22.0083C30.694 21.8863 30.5789 21.6705 30.4351 21.5298L30.1665 21.2671L31.6052 21.3234C32.4012 21.3609 33.3028 21.4453 33.6193 21.5298C33.9358 21.6048 34.3002 21.6611 34.4345 21.6611C34.6359 21.6611 34.5976 21.6236 34.2235 21.4266C33.5713 21.0982 32.7369 20.9387 31.1352 20.8261C29.217 20.6948 28.2483 20.873 28.4306 21.3421C28.4593 21.436 28.6128 21.4829 28.843 21.4829C29.3129 21.4829 30.0802 21.7549 30.3392 22.0083C30.6173 22.2803 30.694 22.2803 30.694 22.0083ZM26.0136 46.8518C26.7905 47.8276 27.8167 48.9346 28.2963 49.3099C28.584 49.5351 28.8334 49.7227 28.8525 49.7227C28.8621 49.7227 28.6511 49.2911 28.3826 48.7658C27.2988 46.6548 26.6658 44.5532 26.3685 42.1327C26.3013 41.5979 26.1958 41.1476 26.0807 40.9599C25.8506 40.5846 25.8506 40.0968 26.0903 39.6371C26.215 39.3931 26.2822 39.0835 26.2822 38.7458V38.2298L25.8218 38.6989C25.371 39.1586 24.9394 39.3462 24.9394 39.0648C24.9394 38.8583 25.6492 37.8639 26.0232 37.5542C26.3205 37.3103 26.3589 37.2259 26.4548 36.4941C26.5219 36.0531 26.6754 35.2744 26.8001 34.7584C26.9343 34.2424 27.0111 33.8014 26.9919 33.7827C26.9248 33.717 24.6709 36.2492 24.364 37.057C24.2966 37.2344 24.1146 37.5449 23.9707 37.7325L23.7214 38.0457C23.7214 38.0457 23.7988 38.4843 23.8844 39.0354C23.9709 39.5923 24.0115 39.9751 24.0476 40.3161C24.0959 40.7722 24.1363 41.1534 24.268 41.7762C24.4215 42.5455 24.575 43.2116 24.6133 43.2585C24.6421 43.3148 24.7668 43.7464 24.8915 44.2249C25.16 45.285 25.6108 46.3358 26.0136 46.8518ZM64.9339 55.7272L64.7325 55.5302C64.7325 55.5302 68.0754 51.3755 68.6744 49.8447C69.1315 48.6764 69.4005 48.3451 69.7635 48.3451C69.9665 48.3451 70.1322 48.3905 70.209 48.5031C70.3432 48.7001 70.4726 48.944 70.3 49.779C70.0123 51.13 69.5711 52.0213 68.2475 53.9446C67.9406 54.3856 67.5474 54.8735 67.3747 55.0423C66.9719 55.4082 66.0657 55.7835 65.5381 55.8679C65.2025 55.9149 65.1066 55.8961 64.9339 55.7272Z" fill="#00160A"/>
<path d="M91.4914 64.9052C92.6846 61.725 92.504 61.0474 92.2971 60.9811C92.2971 60.9811 91.8414 61.2345 91.64 61.7692C91.2659 62.7731 89.9856 65.4001 89.5061 65.8692C88.9402 66.4227 88.9402 66.4227 88.3647 66.4227C87.7893 66.4227 86.1296 65.575 85.9036 64.7393C85.5421 63.4023 87.0987 58.7576 87.1371 58.4949L86.8781 58.3167C86.7055 58.4761 84.4599 65.1374 81.5072 63.4017C81.1691 63.203 80.4522 62.2665 80.3946 61.7692C80.0751 60.3244 81.5414 55.2722 81.7908 54.2345C82.014 53.3056 83.176 52.4435 84.6051 52.4435C86.8014 52.4435 86.5064 54.3216 87.4902 54.9833C87.9262 55.2766 88.6426 54.7449 88.8635 54.7046C90.1007 54.4794 90.5748 54.7416 91.4818 55.4458C92.1819 55.9893 92.7 57.0651 93.2702 57.4441C93.5869 57.6547 93.9229 57.3668 94.033 57.3128C94.4843 57.0912 95.4525 57.2565 95.721 57.4441C96.1147 57.612 97.0795 58.5192 97.2319 59.0468C97.9226 61.4381 95.7414 66.7396 94.918 67.7341C93.5549 69.3802 90.2982 68.0854 91.4914 64.9052Z" fill="white"/>
<path fill-rule="evenodd" clip-rule="evenodd" d="M36.3527 56.1912C38.9807 57.8143 41.6904 58.8744 44.7787 59.1653C47.2148 59.3904 50.4995 59.0808 52.8589 58.3303C54.8442 57.7017 57.5297 55.9603 59.3232 54.4874C62.8047 51.6352 65.0011 47.1802 65.9602 42.4517C66.0945 41.7855 66.2992 40.1111 66.2896 38.4505C66.2896 36.5178 65.4201 31.2363 62.7856 28.191C57.3518 21.9101 48.4197 19.0807 40.913 21.4982C38.2051 22.3703 35.322 23.9503 33.1448 26.0144C30.4018 28.632 28.3781 32.1971 27.5724 35.8373C26.7284 39.684 27.8263 44.2811 29.7349 48.0527C31.2599 51.055 33.7727 54.5868 36.3527 56.1912ZM61.9607 44.8535C60.1576 50.1543 55.458 54.1135 49.5499 55.3144C48.6484 55.4927 48.025 55.5583 46.759 55.5771C45.867 55.6053 44.975 55.5959 44.7928 55.5771C40.6591 55.0892 37.5132 53.5975 34.6167 50.7641C33.3507 49.5163 32.8136 48.8408 32.0272 47.5086C30.7899 45.3976 30.1281 43.2398 29.9267 40.6409C29.2362 31.7374 35.7485 24.3162 44.9175 23.5469C48.5141 23.2467 52.504 24.3256 55.5347 26.4272C56.6569 27.2059 58.6902 29.1761 59.3232 30.0956C59.5821 30.4615 62.095 34.0548 62.5362 36.1188C63.102 38.8021 62.8814 42.1608 61.9607 44.8535Z" fill="white"/>
<path fill-rule="evenodd" clip-rule="evenodd" d="M66.2931 38.4505C66.2931 44.7478 63.2479 51.6324 59.3179 54.5727C57.4429 55.9754 54.9926 57.674 52.8588 58.3303C49.7318 59.292 44.7787 59.1653 44.7787 59.1653C44.7787 59.1653 49.8319 58.5045 51.7045 57.7673C57.0743 55.6533 60.0056 52.4083 61.8157 49.2947C65.3886 43.1487 66.2931 38.2975 66.2931 38.4505Z" fill="#E7EAEE"/>
<path fill-rule="evenodd" clip-rule="evenodd" d="M44.8888 54.4513C42.328 54.1323 39.7864 53.241 37.7339 51.9181C36.5158 51.1394 34.6743 49.3099 33.7824 48.0058C32.5068 46.1294 31.6628 44.1217 31.2504 41.9638C30.953 40.397 30.9626 37.9858 31.2599 36.5879C31.5669 35.1618 31.9601 34.0735 32.6602 32.6944C33.4755 31.0994 34.3387 29.9267 35.6334 28.6601C37.8394 26.5022 40.4002 25.1325 43.4501 24.4757C44.438 24.2693 48.0154 24.1004 48.1401 24.2599C48.1689 24.3069 48.3607 24.4288 48.5621 24.532C48.7635 24.6446 49.3006 25.0386 49.7418 25.4233C50.4036 25.9862 50.7009 26.3427 51.2764 27.2247C51.6696 27.8251 51.9861 28.3693 51.9861 28.4162C51.9861 28.5194 52.293 28.707 52.4657 28.707C52.7054 28.707 52.8685 28.0034 52.9164 26.7649C52.9452 26.0801 53.0028 25.5171 53.0411 25.5171C53.1754 25.5171 54.6524 26.3146 55.343 26.7649C56.6953 27.6468 58.0476 28.8853 59.0451 30.18C59.4959 30.7617 59.563 30.9118 59.563 31.2683C59.563 31.5967 59.6589 31.85 59.9562 32.3566C60.7043 33.6326 61.2894 35.2369 61.6443 37.0101C61.8744 38.2016 61.8744 40.4533 61.6347 41.7011C60.9825 45.1349 59.0451 48.55 56.5227 50.7172C54.3839 52.5467 52.1108 53.6725 49.4253 54.2261C48.5046 54.4231 45.7424 54.5545 44.8888 54.4513ZM38.0312 48.034C38.1175 47.9402 38.175 47.7994 38.1463 47.7337C38.1376 47.714 38.0175 47.6588 37.8418 47.578L37.8417 47.578L37.8417 47.5779C37.4319 47.3895 36.7196 47.0619 36.4108 46.7205C35.1832 45.3507 34.7324 44.3281 34.4543 42.2171C34.1857 40.1625 34.4113 38.7734 34.8955 36.541C35.1316 35.452 35.7593 34.5524 36.1499 33.9928C36.4154 33.6123 36.5713 33.3889 36.4199 33.3699C36.0458 33.3136 35.9883 33.3417 35.5951 33.7076C34.7511 34.4957 34.3674 35.1243 33.9646 36.3346C33.3412 38.2298 33.2207 43.3514 34.4543 45.6603C35.6878 47.9692 37.8106 48.2779 38.0312 48.034ZM51.6696 40.1531C51.5067 41.6105 50.816 43.7182 50.0104 44.6377C49.6363 45.0693 48.2633 45.8104 47.1043 45.6603C45.9848 45.5153 45.1094 45.0036 44.3613 43.9059C43.7187 42.9583 43.3868 41.8081 43.1624 40.3595C42.7749 37.858 44.4668 34.9461 45.1957 34.2236C45.9342 33.4825 46.4617 33.2198 47.1331 33.2104C47.7853 33.2104 48.2073 33.3511 48.8691 33.8108C50.0775 34.6365 51.9861 37.321 51.6696 40.1531ZM38.7409 32.3941C38.9327 32.1784 38.9615 32.0752 38.904 31.6717C38.8656 31.2965 38.7889 31.1463 38.5875 30.9869C38.2326 30.7054 37.7914 30.7054 37.4653 31.0056C37.2351 31.2214 37.2064 31.2965 37.2351 31.8125C37.2639 32.366 37.2831 32.4035 37.5996 32.5724C38.0216 32.7976 38.434 32.7319 38.7409 32.3941ZM44.7257 26.6054C42.9993 27.8157 42.2512 28.313 41.4744 28.7821C40.8605 29.1574 40.6687 29.1667 40.6687 28.829C40.6687 28.6507 40.803 28.4537 41.1483 28.1441L41.6278 27.7125L40.6975 27.5906C39.6521 27.4592 38.6354 27.1778 38.4148 26.962C38.0504 26.5961 38.3669 26.5116 39.4027 26.6993C39.8631 26.7743 40.755 26.8681 41.388 26.8869L42.539 26.9338L43.3734 26.3428C45.2053 25.048 47.1043 24.3162 48.0154 24.5414C48.5813 24.6728 48.5142 24.8229 47.8716 24.8979C47.1331 24.9824 46.6823 25.2263 44.7257 26.6054Z" fill="white"/>
<path d="M47.1906 44.375C47.1906 44.3281 47.2483 44.2812 47.3253 44.2812C47.4022 44.2812 47.4984 44.3281 47.5272 44.375C47.5561 44.4313 47.4984 44.4688 47.3926 44.4688C47.2772 44.4688 47.1906 44.4313 47.1906 44.375Z" fill="white"/>
<path d="M47.7661 44.2905C47.7661 44.1873 48.0058 44.0935 48.2744 44.0935C48.4854 44.1029 48.4854 44.1029 48.3031 44.2343C48.0921 44.3937 47.7661 44.4219 47.7661 44.2905Z" fill="white"/>
<path d="M46.2794 44.0466C46.2506 43.9716 46.2123 43.8402 46.1835 43.7652C46.1547 43.6713 46.2027 43.6244 46.3274 43.6244C46.4329 43.6244 46.5192 43.6807 46.5192 43.7558C46.5192 43.8308 46.548 43.9528 46.5767 44.0372C46.6151 44.1404 46.5863 44.1873 46.4808 44.1873C46.3945 44.1873 46.2986 44.1217 46.2794 44.0466Z" fill="white"/>
<path d="M46.7877 43.8121C46.7398 43.5306 46.8453 43.4368 47.1905 43.4368C47.296 43.4368 47.3824 43.5306 47.4207 43.6901C47.4975 43.9622 47.3728 44.0935 47.0371 44.0935C46.8836 44.0935 46.8165 44.0278 46.7877 43.8121Z" fill="white"/>
<path d="M45.8095 43.859C45.6272 43.7182 45.6272 43.7182 45.8287 43.7182C45.9533 43.7182 46.0397 43.7745 46.0397 43.859C46.0397 44.0278 46.0397 44.0278 45.8095 43.859Z" fill="white"/>
<path d="M47.7373 43.8496C47.6126 43.7276 47.6701 43.3617 47.8236 43.3054C48.1017 43.2022 48.2264 43.2491 48.2839 43.4931C48.3223 43.6338 48.3415 43.7558 48.3223 43.7652C48.2456 43.8496 47.7948 43.9059 47.7373 43.8496Z" fill="white"/>
<path d="M48.5909 43.6526C48.5621 43.6244 48.5333 43.5024 48.5333 43.3899C48.5333 43.2304 48.6101 43.1647 48.8402 43.1178C49.0416 43.0803 49.1663 43.099 49.2239 43.1741C49.3198 43.3242 49.3198 43.5118 49.2335 43.5587C49.0608 43.6526 48.658 43.7089 48.5909 43.6526Z" fill="white"/>
<path d="M45.3683 43.3617C45.3683 43.2491 45.4546 43.1553 45.5793 43.1272C45.8287 43.0615 45.8191 43.0521 45.867 43.2961C45.8862 43.4368 45.8382 43.4931 45.6368 43.5118C45.4258 43.54 45.3683 43.5024 45.3683 43.3617Z" fill="white"/>
<path d="M46.0972 43.3711C45.9629 43.2304 46.0492 42.9677 46.2314 42.9677C46.3561 42.9677 46.4233 43.0333 46.4233 43.1459C46.4233 43.3242 46.2027 43.4743 46.0972 43.3711Z" fill="white"/>
<path d="M46.6727 43.0896C46.5959 42.9114 46.759 42.78 47.0755 42.78C47.2193 42.78 47.2865 42.8363 47.2865 42.9583C47.2865 43.0615 47.2002 43.1553 47.0755 43.1928C46.759 43.2679 46.7398 43.2679 46.6727 43.0896Z" fill="white"/>
<path d="M49.4445 43.0615C49.4734 43.0146 49.5215 42.9677 49.5503 42.9677C49.5792 42.9677 49.5696 43.0146 49.5407 43.0615C49.5118 43.1178 49.4638 43.1553 49.4349 43.1553C49.406 43.1553 49.4157 43.1178 49.4445 43.0615Z" fill="white"/>
<path d="M47.5359 42.902C47.4591 42.7144 47.555 42.6205 47.8619 42.5736C48.0346 42.5549 48.1113 42.5924 48.1305 42.7237C48.1976 43.0334 47.6509 43.2022 47.5359 42.902Z" fill="white"/>
<path d="M45.234 42.7425C45.1477 42.4329 45.1669 42.4048 45.4162 42.4048C45.5505 42.4048 45.656 42.4423 45.656 42.4892C45.656 42.5361 45.6848 42.6393 45.7136 42.7144C45.7423 42.8082 45.6848 42.8645 45.5217 42.8926C45.3395 42.9301 45.2724 42.8926 45.234 42.7425Z" fill="white"/>
<path d="M48.4374 42.6393C48.4374 42.4704 48.5045 42.3954 48.6867 42.3485C48.9553 42.2828 49.1087 42.4141 49.1087 42.7144C49.1087 42.8363 49.032 42.8739 48.7731 42.8739C48.4757 42.8739 48.4374 42.8457 48.4374 42.6393Z" fill="white"/>
<path d="M44.9464 42.6393C44.9175 42.5642 44.9367 42.4986 44.9848 42.4986C45.0425 42.4986 45.081 42.5642 45.081 42.6393C45.081 42.7144 45.0618 42.78 45.0425 42.78C45.0233 42.78 44.9848 42.7144 44.9464 42.6393Z" fill="white"/>
<path d="M45.9149 42.7144C45.7807 42.5924 45.8574 42.3297 46.03 42.2828C46.1355 42.2546 46.241 42.264 46.2698 42.2922C46.3849 42.3954 46.3178 42.6675 46.1739 42.7237C45.9917 42.7894 45.9917 42.7894 45.9149 42.7144Z" fill="white"/>
<path d="M49.339 42.6487C49.2335 42.3766 49.3486 42.1702 49.6171 42.1421C49.8185 42.1139 49.8761 42.1514 49.8761 42.3016C49.8761 42.6112 49.7706 42.78 49.5788 42.78C49.4733 42.78 49.3678 42.7237 49.339 42.6487Z" fill="white"/>
<path d="M46.5864 42.5267C46.4713 42.4235 46.5096 42.2359 46.6727 42.1796C46.8549 42.1139 47.2386 42.3016 47.1331 42.4048C46.9988 42.5173 46.6535 42.6018 46.5864 42.5267Z" fill="white"/>
<path d="M47.4208 42.2922C47.3344 42.1608 47.6413 41.9357 47.8907 41.9357C48.0058 41.9357 48.0538 41.9919 48.0346 42.0952C47.9962 42.2828 47.5071 42.4329 47.4208 42.2922Z" fill="white"/>
<path d="M44.793 42.2265C44.793 42.1796 44.7642 42.0764 44.7353 41.992C44.7064 41.9075 44.7161 41.8418 44.7738 41.8418C44.8988 41.8418 44.995 42.1984 44.8796 42.2734C44.8315 42.3016 44.793 42.2828 44.793 42.2265Z" fill="white"/>
<path d="M45.0518 42.0107C44.9942 41.8043 45.1093 41.6542 45.3299 41.6542C45.4546 41.6542 45.5793 42.0201 45.5025 42.1421C45.397 42.3016 45.0997 42.2077 45.0518 42.0107Z" fill="white"/>
<path d="M45.7232 42.0576C45.5793 41.9169 45.6656 41.5791 45.8575 41.5322C46.0013 41.4947 46.0781 41.5416 46.1548 41.7105C46.2123 41.8324 46.2411 41.9544 46.2219 41.9732C46.126 42.0576 45.7807 42.1233 45.7232 42.0576Z" fill="white"/>
<path d="M48.3127 42.0576C48.188 41.9357 48.2456 41.8606 48.5333 41.7574C48.7731 41.6823 48.8402 41.6917 48.8882 41.8043C48.9745 42.0295 48.495 42.2453 48.3127 42.0576Z" fill="white"/>
<path d="M49.1567 41.8418C49.0608 41.6917 49.1951 41.5604 49.4444 41.5604C49.7418 41.5604 49.8281 41.8043 49.5595 41.8794C49.2718 41.9544 49.2239 41.945 49.1567 41.8418Z" fill="white"/>
<path d="M49.9719 41.6167C49.9719 41.4759 50.145 41.3258 50.222 41.4009C50.2893 41.4666 50.1547 41.748 50.0585 41.748C50.0104 41.748 49.9719 41.6917 49.9719 41.6167Z" fill="white"/>
<path d="M44.6683 41.4947C44.6299 41.4666 44.601 41.3446 44.6106 41.2414C44.6106 41.0631 44.6202 41.0631 44.7068 41.2695C44.803 41.4947 44.7838 41.6073 44.6683 41.4947Z" fill="white"/>
<path d="M44.8504 41.354C44.7641 41.0256 44.7737 40.9975 45.023 40.9975C45.3012 40.9975 45.4738 41.3446 45.2628 41.476C45.0422 41.6073 44.9175 41.5698 44.8504 41.354Z" fill="white"/>
<path d="M48.1497 41.5416C48.1497 41.5135 48.1976 41.3634 48.2552 41.1945C48.3894 40.8192 48.6867 40.8004 48.7539 41.1663C48.7827 41.3071 48.7922 41.429 48.7827 41.4384C48.7347 41.4947 48.1497 41.5791 48.1497 41.5416Z" fill="white"/>
<path d="M45.5315 41.3071C45.493 41.2789 45.4642 41.1663 45.4642 41.0631C45.4642 40.913 45.493 40.9036 45.6084 40.9975C45.6854 41.0631 45.7527 41.1757 45.7527 41.2414C45.7527 41.3821 45.6373 41.4197 45.5315 41.3071Z" fill="white"/>
<path d="M48.9841 41.1194C48.9266 40.8286 49.0513 40.6972 49.3486 40.7348C49.4924 40.7535 49.5404 40.838 49.5404 41.0444C49.5404 41.2789 49.502 41.3352 49.291 41.354C49.08 41.3821 49.0321 41.3352 48.9841 41.1194Z" fill="white"/>
<path d="M49.924 41.157C49.7993 40.7817 49.8377 40.6691 50.0966 40.641C50.3268 40.6128 50.3556 40.641 50.3556 40.8849C50.3556 41.0913 50.298 41.1757 50.1542 41.2133C50.0487 41.2414 49.9432 41.2133 49.924 41.157Z" fill="white"/>
<path d="M44.5242 40.6222C44.5242 40.4439 44.5435 40.3689 44.5723 40.4627C44.5916 40.5471 44.5916 40.6972 44.5723 40.7911C44.5435 40.8755 44.5242 40.8004 44.5242 40.6222Z" fill="white"/>
<path d="M44.764 40.7441C44.6394 40.6316 44.6969 40.2657 44.8504 40.2094C45.071 40.1249 45.1765 40.2281 45.1765 40.5377C45.1765 40.7348 45.1285 40.8098 45.0038 40.8098C44.9079 40.8098 44.7928 40.7817 44.764 40.7441Z" fill="white"/>
<path d="M45.3396 40.4908C45.3012 40.3501 45.2819 40.2 45.3204 40.1718C45.4166 40.078 45.4743 40.2281 45.4454 40.5002L45.4166 40.7629L45.3396 40.4908Z" fill="white"/>
<path d="M48.4374 40.4251C48.4374 40.3219 48.4855 40.2657 48.5336 40.2938C48.5913 40.3219 48.6297 40.4158 48.6297 40.4908C48.6297 40.5659 48.5913 40.6222 48.5336 40.6222C48.4855 40.6222 48.4374 40.5377 48.4374 40.4251Z" fill="white"/>
<path d="M48.869 40.5471C48.7347 40.4064 48.8402 40.1531 49.0608 40.0968C49.339 40.0311 49.3485 40.0311 49.4349 40.3032C49.4924 40.4721 49.454 40.5096 49.2047 40.5471C49.0512 40.5753 48.8978 40.5659 48.869 40.5471Z" fill="white"/>
<path d="M49.7514 40.3689C49.6459 40.275 49.6746 39.9654 49.7801 39.9654C49.8377 39.9654 49.876 39.9279 49.876 39.8716C49.876 39.8247 49.8185 39.7778 49.7418 39.7778C49.5787 39.7778 49.4444 39.3181 49.5787 39.1867C49.7514 39.0179 49.9432 39.1961 50.0583 39.6558C50.1254 39.8998 50.1925 40.1812 50.2213 40.275C50.2597 40.397 50.2213 40.4345 50.0391 40.4345C49.9144 40.4345 49.7801 40.4064 49.7514 40.3689Z" fill="white"/>
<path d="M50.2693 39.8716C50.2022 39.5902 50.0295 39.0272 49.9049 38.6144C49.713 38.014 49.6939 37.8639 49.7994 37.7982C49.8665 37.7513 49.9528 37.7137 49.9816 37.7137C50.0871 37.7137 50.4707 39.6371 50.4324 40.0123L50.4036 40.3876L50.2693 39.8716Z" fill="white"/>
<path d="M44.4283 39.8247C44.4283 39.6746 44.4476 39.6183 44.4764 39.7121C44.4957 39.7966 44.4957 39.9279 44.4764 39.9936C44.4476 40.0499 44.4283 39.9842 44.4283 39.8247Z" fill="white"/>
<path d="M44.6202 39.8059C44.6585 39.4776 44.9367 39.4025 45.0134 39.7027C45.0805 39.9467 45.0997 39.9185 44.812 40.0123C44.6106 40.0686 44.5914 40.0499 44.6202 39.8059Z" fill="white"/>
<path d="M48.6676 39.7215C48.5908 39.4494 48.7539 39.2899 49.0608 39.3275C49.291 39.3556 49.3773 39.759 49.1855 39.881C48.9457 40.0311 48.7251 39.9654 48.6676 39.7215Z" fill="white"/>
<path d="M45.1765 39.6464C45.1765 39.487 45.2245 39.4025 45.3303 39.4025C45.4265 39.4025 45.465 39.4682 45.4458 39.6089C45.3977 39.9091 45.1765 39.9373 45.1765 39.6464Z" fill="white"/>
<path d="M44.3229 39.2524C44.3229 39.1492 44.3517 39.1211 44.3806 39.1961C44.4094 39.2618 44.3998 39.3462 44.371 39.3744C44.3421 39.4119 44.3133 39.3556 44.3229 39.2524Z" fill="white"/>
<path d="M44.5051 39.2243C44.5051 39.0835 44.5626 39.0272 44.7065 39.0272C44.8407 39.0272 44.8887 39.0741 44.8695 39.1867C44.8216 39.4307 44.5051 39.4588 44.5051 39.2243Z" fill="white"/>
<path d="M45.0326 39.1398C44.9654 38.9709 44.9654 38.9709 45.2532 38.8959C45.4258 38.8396 45.4642 38.8677 45.4642 39.0085C45.4642 39.2336 45.1189 39.3462 45.0326 39.1398Z" fill="white"/>
<path d="M48.5045 39.0085C48.4374 38.7739 48.5621 38.652 48.8978 38.652C49.0608 38.652 49.1088 38.7083 49.1088 38.8865C49.1088 39.0272 49.0512 39.1211 48.9745 39.1211C48.8978 39.1211 48.7731 39.1492 48.6963 39.1774C48.61 39.2055 48.5429 39.1492 48.5045 39.0085Z" fill="white"/>
<path d="M49.3389 38.7927C49.2622 38.605 49.3773 38.4643 49.5979 38.4643C49.7322 38.4643 49.7801 38.53 49.7801 38.6989C49.7801 38.8677 49.7322 38.9334 49.5883 38.9334C49.4828 38.9334 49.3677 38.8677 49.3389 38.7927Z" fill="white"/>
<path d="M44.4092 38.6613C44.4092 38.4643 44.6298 38.2391 44.7257 38.3423C44.764 38.3705 44.7928 38.5018 44.7928 38.6238C44.7928 38.7739 44.7353 38.8396 44.601 38.8396C44.4763 38.8396 44.4092 38.7739 44.4092 38.6613Z" fill="white"/>
<path d="M44.9367 38.5487C44.86 38.3142 44.9463 38.211 45.2724 38.1641C45.5697 38.1266 45.6656 38.4362 45.4066 38.6238C45.1573 38.8021 45.0038 38.7739 44.9367 38.5487Z" fill="white"/>
<path d="M48.4086 38.4925C48.3415 38.4362 48.3127 38.089 48.3703 38.089C48.3799 38.089 48.5237 38.0515 48.6964 38.0046C48.9841 37.9202 49.0033 37.9295 48.9937 38.1829C48.9841 38.3705 48.9265 38.4643 48.7827 38.5019C48.5237 38.5675 48.4854 38.5675 48.4086 38.4925Z" fill="white"/>
<path d="M48.0537 38.2767C48.0537 38.211 48.0826 38.1828 48.121 38.211C48.1499 38.2485 48.1499 38.3048 48.121 38.3423C48.0826 38.3705 48.0537 38.3423 48.0537 38.2767Z" fill="white"/>
<path d="M49.128 38.1266C49.1567 37.9671 49.4541 37.7325 49.5212 37.8076C49.55 37.8357 49.5979 37.9483 49.6267 38.0703C49.6938 38.2579 49.6651 38.2767 49.3965 38.2767C49.1663 38.2767 49.0992 38.2391 49.128 38.1266Z" fill="white"/>
<path d="M44.5051 38.1172C44.5051 38.0703 44.5532 37.9765 44.6012 37.9014C44.6782 37.7888 44.6974 37.7982 44.6974 37.9765C44.6974 38.089 44.659 38.1829 44.6012 38.1829C44.5532 38.1829 44.5051 38.1547 44.5051 38.1172Z" fill="white"/>
<path d="M44.7928 37.9108C44.7928 37.6481 44.9943 37.5637 45.1477 37.7607C45.2436 37.9014 45.2436 37.9483 45.1477 38.014C44.9463 38.1359 44.7928 38.0984 44.7928 37.9108Z" fill="white"/>
<path d="M47.7085 37.7888C47.5359 37.6012 47.5359 37.5918 47.6989 37.6481C47.7948 37.6856 47.9195 37.7137 47.9675 37.7137C48.0154 37.7137 48.0538 37.7794 48.0538 37.8545C48.0538 38.0515 47.9195 38.0327 47.7085 37.7888Z" fill="white"/>
<path d="M45.6464 37.7794C45.234 37.4698 45.1765 36.7756 45.5601 36.7756C45.8191 36.7756 46.0588 37.1696 46.0205 37.5355C45.9917 37.8732 45.8766 37.9483 45.6464 37.7794Z" fill="white"/>
<path d="M48.2744 37.8357C48.3129 37.8076 48.3706 37.8076 48.409 37.8357C48.4379 37.8732 48.409 37.9014 48.3417 37.9014C48.2744 37.9014 48.2455 37.8732 48.2744 37.8357Z" fill="white"/>
<path d="M49.7226 37.4698C49.7515 37.3854 49.7803 37.3009 49.7803 37.2822C49.7803 37.2634 49.8284 37.2446 49.8765 37.2446C49.9342 37.2446 49.9727 37.3291 49.9727 37.4323C49.9727 37.5449 49.9054 37.6199 49.8188 37.6199C49.713 37.6199 49.6842 37.573 49.7226 37.4698Z" fill="white"/>
<path d="M44.6969 37.4417C44.6969 37.2259 44.8983 36.8694 45.0134 36.8694C45.2148 36.8694 45.071 37.4698 44.8599 37.5074C44.7736 37.5261 44.6969 37.498 44.6969 37.4417Z" fill="white"/>
<path d="M46.8549 37.3385L46.5671 37.2728L46.8261 37.2071C47.0946 37.1321 47.2865 37.1884 47.2865 37.3479C47.2865 37.4417 47.2769 37.4417 46.8549 37.3385Z" fill="white"/>
<path d="M46.5192 36.8881C46.5192 36.5035 46.7398 36.4472 46.9412 36.7849C47.0754 37.0101 47.085 37.057 46.9604 37.057C46.8836 37.057 46.7589 37.0852 46.6726 37.1133C46.5575 37.1602 46.5192 37.1039 46.5192 36.8881Z" fill="white"/>
<path d="M48.1881 37.0195C47.7565 36.8318 47.4783 36.3346 47.4783 35.7435C47.4783 35.3213 47.5167 35.2181 47.7757 34.9836C47.9387 34.8335 48.1017 34.7115 48.1497 34.7115C48.3607 34.7115 49.1376 35.4339 49.3965 35.8843L49.6939 36.4003L49.3773 36.7286C49.0129 37.1039 48.6101 37.2071 48.1881 37.0195Z" fill="white"/>
<path d="M46.1835 36.7755C46.1547 36.7286 46.1739 36.6817 46.222 36.6817C46.2797 36.6817 46.3278 36.7286 46.3278 36.7755C46.3278 36.8318 46.3086 36.8694 46.2893 36.8694C46.2605 36.8694 46.2124 36.8318 46.1835 36.7755Z" fill="white"/>
<path d="M44.9271 36.6254C44.9559 36.541 44.9847 36.4566 44.9847 36.4378C44.9847 36.419 45.071 36.4003 45.1765 36.4003C45.4162 36.4003 45.4258 36.5504 45.1861 36.6817C44.9271 36.8131 44.86 36.8037 44.9271 36.6254Z" fill="white"/>
<path d="M45.6848 36.5129C45.4642 36.4847 45.3971 36.3627 45.5409 36.2783C45.5793 36.2502 45.7519 36.2033 45.9246 36.1657C46.1835 36.1094 46.2315 36.1282 46.2315 36.2877C46.2315 36.4847 46.0301 36.5692 45.6848 36.5129Z" fill="white"/>
<path d="M46.4233 36.1939C46.4233 36.0813 46.4329 36.0156 46.4521 36.0344C46.4618 36.0531 46.5387 36.147 46.606 36.2408C46.7214 36.3721 46.7118 36.4003 46.5772 36.4003C46.481 36.4003 46.4233 36.3252 46.4233 36.1939Z" fill="white"/>
<path d="M45.0806 36.1282C45.0806 36.0719 45.1287 36.0062 45.1767 35.9781C45.2345 35.9499 45.2729 35.9875 45.2729 36.0625C45.2729 36.147 45.2345 36.2126 45.1767 36.2126C45.1287 36.2126 45.0806 36.1751 45.0806 36.1282Z" fill="white"/>
<path d="M45.4354 35.9875C45.3587 35.7998 46.0396 35.5934 46.1547 35.7717C46.241 35.9218 46.1547 35.9875 45.7903 36.0625C45.5697 36.1094 45.4738 36.0907 45.4354 35.9875Z" fill="white"/>
<path d="M46.337 35.6872C46.337 35.584 46.3658 35.5559 46.3947 35.6309C46.4235 35.6966 46.4139 35.7811 46.3851 35.8092C46.3562 35.8467 46.3274 35.7904 46.337 35.6872Z" fill="white"/>
<path d="M45.5218 35.5371C45.6368 35.3307 45.9725 34.993 46.0589 34.993C46.1548 34.993 46.1644 35.4339 46.0684 35.4902C46.0205 35.509 45.867 35.5559 45.7232 35.5934C45.5122 35.6403 45.4642 35.6309 45.5218 35.5371Z" fill="white"/>
<path d="M46.289 35.3213C46.1835 35.0399 46.2315 34.9179 46.4616 34.8804C46.7014 34.8335 46.7014 34.8335 46.548 35.1243C46.3561 35.4996 46.3657 35.4996 46.289 35.3213Z" fill="white"/>
<path d="M46.2314 34.7584C46.2314 34.7397 46.4233 34.6083 46.663 34.477C46.9508 34.3081 47.1522 34.2518 47.2961 34.2893C47.4687 34.3456 47.4207 34.3831 46.9987 34.5802C46.5288 34.7866 46.2314 34.8616 46.2314 34.7584Z" fill="white"/>
<path d="M51.5545 26.446C51.2955 26.0801 50.7488 25.489 50.3556 25.1325C49.9624 24.776 49.7034 24.4851 49.7801 24.4851C49.9911 24.4851 51.6024 24.9167 52.0052 25.0856C52.3409 25.2263 52.3505 25.2451 52.2642 25.5359C52.2163 25.7048 52.1779 26.127 52.1779 26.4741C52.1779 26.8306 52.1491 27.1121 52.1107 27.1121C52.0628 27.1121 51.823 26.8119 51.5545 26.446Z" fill="white"/>
<path d="M32.0368 54.8641C31.6435 54.667 31.5572 54.5545 31.0585 53.5881C30.3392 52.2183 30.32 51.8994 31.0009 52.6781C31.2695 52.9877 31.8929 53.6256 32.382 54.0947C33.2165 54.8828 33.2548 54.9391 32.9767 54.9016C32.7753 54.8735 32.6985 54.8922 32.7465 54.9673C32.8616 55.1361 32.4971 55.0892 32.0368 54.8641Z" fill="white"/>
<path fill-rule="evenodd" clip-rule="evenodd" d="M48.1102 71.9573C48.0306 71.7723 48.1194 71.5593 48.3084 71.4814L48.5151 71.3957C50.5241 70.5548 51.6772 70.0497 52.4608 69.2476C53.2443 68.4455 53.3381 67.2674 53.4853 66.5505C53.5257 66.3538 53.9811 66.6993 54.1822 66.7388C54.3833 66.7783 54.5136 66.9699 54.4732 67.1666C54.2962 68.0285 53.8196 68.8502 53.0523 69.6302C52.2875 70.4076 50.807 71.2409 48.5967 72.1512C48.4076 72.229 48.1898 72.1422 48.1102 71.9573Z" fill="#00160A"/>
<path fill-rule="evenodd" clip-rule="evenodd" d="M57.1954 34.523C57.3717 34.4204 57.5996 34.477 57.7046 34.6494C58.7552 36.3758 59.318 38.3494 59.318 40.4027C59.318 46.6232 54.1629 51.666 47.8038 51.666C46.114 51.666 44.4751 51.3095 42.9743 50.6303C42.7881 50.546 42.0848 49.8751 42.7931 50.1479C43.5014 50.4208 46.242 51.0333 47.8235 51.0333C53.7724 51.0333 57.9808 46.2219 57.9808 40.4027C57.9808 38.4811 57.1954 36.7756 57.0662 35.0211C57.0513 34.8177 57.0191 34.6257 57.1954 34.523Z" fill="#00160A"/>
<path fill-rule="evenodd" clip-rule="evenodd" d="M20.4101 62.0218C20.5414 61.8676 20.7756 61.5561 20.9332 61.6845C21.5798 62.2113 22.2698 62.8218 23.0079 62.9396C23.7759 63.0622 24.6871 63.0622 25.7402 62.9375C25.9439 62.9133 26.1289 63.0553 26.1536 63.2545C26.1782 63.4537 26.0331 63.6348 25.8295 63.6589C24.7112 63.7913 23.7311 63.7913 22.8882 63.6568C22.0154 63.5174 21.2037 63.1413 20.4578 62.5335C20.3001 62.4051 20.2788 62.176 20.4101 62.0218Z" fill="#00160A"/>
<path d="M28.2963 49.3099C27.8168 48.9346 26.7906 47.8276 26.0137 46.8518C25.6109 46.3358 25.1601 45.285 24.8915 44.2249C24.7669 43.7464 24.6422 43.3148 24.6134 43.2585C24.575 43.2116 24.4216 42.5455 24.2681 41.7762C24.0379 40.6878 24.0866 40.3372 23.8845 39.0354C23.7989 38.4843 23.7214 38.0457 23.7214 38.0457L23.9708 37.7325C24.1147 37.5449 24.2966 37.2344 24.364 37.057C24.6709 36.2492 26.9248 33.717 26.992 33.7827C27.0111 33.8014 26.9344 34.2424 26.8001 34.7584C26.6755 35.2744 26.522 36.0531 26.4549 36.4941C26.359 37.2259 26.3206 37.3103 26.0233 37.5542C25.6492 37.8639 24.9395 38.8583 24.9395 39.0648C24.9395 39.3462 25.3711 39.1586 25.8219 38.6989L26.2822 38.2298V38.7458C26.2822 39.0835 26.2151 39.3931 26.0904 39.6371C25.8506 40.0968 25.8506 40.5846 26.0808 40.9599C26.1959 41.1476 26.3014 41.5979 26.3686 42.1327C26.6659 44.5532 27.2989 46.6548 28.3827 48.7658C28.6512 49.2911 28.8622 49.7227 28.8526 49.7227C28.8334 49.7227 28.5841 49.5351 28.2963 49.3099Z" fill="white"/>
<path fill-rule="evenodd" clip-rule="evenodd" d="M68.2045 55.0986L68.8951 55.3988C69.0382 55.4635 70.6179 56.206 72.5153 57.0978C75.5745 58.5357 79.4598 60.3619 79.4835 60.3619C79.5219 60.3619 79.7019 59.9548 79.7425 59.48C79.8384 58.4574 80.1933 57.0688 80.6057 56.1025C80.7975 55.6709 80.951 55.1315 80.951 55.0846C80.951 55.0632 80.795 55.0017 80.5398 54.901C80.2359 54.7811 79.7913 54.6056 79.3013 54.3762C76.8844 53.241 72.156 50.9236 71.5709 50.5765C70.9955 50.2481 70.8804 50.22 70.8804 50.4358C70.8804 50.7172 70.2953 52.0213 69.8446 52.725C69.6048 53.1096 69.1348 53.8039 68.7991 54.2636L68.2045 55.0986ZM79.3205 58.6732C79.5955 58.8291 79.1191 59.0578 79.004 59.0954C78.3263 59.1516 77.5285 59.027 76.8748 58.6544C76.533 58.4173 73.8417 56.9547 72.0565 55.9845C71.2403 55.541 70.6135 55.2004 70.4872 55.1268C70.0843 54.8922 69.7007 54.6389 69.6336 54.5638C69.4322 54.3105 69.624 54.1979 70.1898 54.2449C70.53 54.2731 78.7264 58.3364 79.3205 58.6732Z" fill="white"/>
<path d="M61.3182 55.943C61.0688 55.8586 60.8003 55.6709 60.6276 55.4551L60.3399 55.108L61.3565 54.1229C62.9199 52.6218 64.0708 50.9812 65.1066 49.1517C65.4519 48.5419 66.4781 46.0825 66.6028 45.8104C66.7946 45.4164 66.9385 45.2663 67.3509 45.0411C67.84 44.7596 68.3963 44.6658 68.6361 44.8253C69.0965 45.1255 69.0965 46.0731 68.6361 47.7056C68.1278 49.4976 67.4468 50.7829 66.0369 52.6311C65.8164 52.9126 65.4039 53.4661 65.1066 53.8508C64.3106 54.8828 63.7927 55.3801 63.0925 55.7647C62.402 56.14 61.9991 56.1869 61.3182 55.943Z" fill="white"/>
<path d="M64.934 55.7272L64.7326 55.5302C64.7326 55.5302 68.0755 51.3755 68.6745 49.8447C69.1316 48.6764 69.4006 48.3451 69.7636 48.3451C69.9666 48.3451 70.1323 48.3905 70.209 48.5031C70.3433 48.7001 70.4727 48.944 70.3001 49.779C70.0123 51.13 69.5711 52.0213 68.2476 53.9446C67.9407 54.3856 67.5474 54.8735 67.3748 55.0423C66.972 55.4082 66.0657 55.7835 65.5382 55.8679C65.2025 55.9149 65.1066 55.8961 64.934 55.7272Z" fill="white"/>
<path fill-rule="evenodd" clip-rule="evenodd" d="M70.5491 51.3828C70.7425 50.9499 70.8804 50.5724 70.8804 50.4358C70.8804 50.22 70.9955 50.2481 71.5709 50.5765C72.156 50.9236 76.8843 53.241 79.3013 54.3762C80.2028 54.7984 80.9509 55.0377 80.9509 55.0846C80.9509 55.1315 70.344 51.8417 70.5491 51.3828Z" fill="#E7EAEE"/>
<path fill-rule="evenodd" clip-rule="evenodd" d="M37.7339 51.9181C36.5158 51.1394 34.6743 49.3099 33.7824 48.0058C32.5068 46.1294 31.6628 44.1217 31.2504 41.9638C30.953 40.397 30.9626 37.9858 31.2599 36.5879C31.5669 35.1618 31.9601 34.0735 32.6602 32.6944C33.4755 31.0994 34.3387 29.9267 35.6334 28.6601C36.9032 27.4181 31.2599 32.5544 32.6602 41.7445C33.7824 49.4457 38.605 52.4796 37.7339 51.9181Z" fill="#E7EAEE"/>
</svg>
